<?xml version="1.0" encoding="UTF-8" standalone="no"?>
<!-- Created with Inkscape (http://www.inkscape.org/) -->

<svg
   xmlns:dc="http://purl.org/dc/elements/1.1/"
   xmlns:cc="http://creativecommons.org/ns#"
   xmlns:rdf="http://www.w3.org/1999/02/22-rdf-syntax-ns#"
   xmlns:svg="http://www.w3.org/2000/svg"
   xmlns="http://www.w3.org/2000/svg"
   xmlns:sodipodi="http://sodipodi.sourceforge.net/DTD/sodipodi-0.dtd"
   xmlns:inkscape="http://www.inkscape.org/namespaces/inkscape"
   id="svg3071"
   version="1.1"
   inkscape:version="0.48.4 r9939"
   width="345"
   height="239"
   sodipodi:docname="favicon.svg"
   inkscape:export-filename="/home/zacharilius/Documents/GitHub/odd-job/odd-job/Odd-Job/src/main/webapp/img/favicon.png"
   inkscape:export-xdpi="11.07"
   inkscape:export-ydpi="11.07">
  <metadata
     id="metadata3077">
    <rdf:RDF>
      <cc:Work
         rdf:about="">
        <dc:format>image/svg+xml</dc:format>
        <dc:type
           rdf:resource="http://purl.org/dc/dcmitype/StillImage" />
        <dc:title></dc:title>
      </cc:Work>
    </rdf:RDF>
  </metadata>
  <defs
     id="defs3075" />
  <sodipodi:namedview
     pagecolor="#ffffff"
     bordercolor="#666666"
     borderopacity="1"
     objecttolerance="10"
     gridtolerance="10"
     guidetolerance="10"
     inkscape:pageopacity="0"
     inkscape:pageshadow="2"
     inkscape:window-width="1366"
     inkscape:window-height="744"
     id="namedview3073"
     showgrid="false"
     inkscape:zoom="0.98900286"
     inkscape:cx="292.96318"
     inkscape:cy="151.93401"
     inkscape:window-x="0"
     inkscape:window-y="24"
     inkscape:window-maximized="1"
     inkscape:current-layer="svg3071"
     inkscape:snap-grids="false" />
  <g
     inkscape:groupmode="layer"
     id="layer1"
     inkscape:label="Layer"
     style="display:none" />
  <path
     style="fill:#1a1a1a;fill-opacity:1"
     d="M 79.639888,235.35926 C 56.118987,233.55869 31.252709,223.36243 17.589669,209.91594 8.0256733,200.50354 6.955114,197.94014 6.955114,184.45211 c 0,-9.16688 0.6544575,-11.81588 5.128801,-20.75957 4.18948,-8.37427 7.976468,-12.92411 20.677384,-24.84265 L 48.309882,124.2591 49.306147,102.49087 C 49.854092,90.518347 50.959077,78.212621 51.761668,75.144815 54.872314,63.254749 60.873363,53.545911 72.967107,40.837455 83.554984,29.711409 86.943754,27.149583 98.249188,21.724828 129.69386,6.6365412 134.01141,5.872326 187.58757,5.9117442 c 38.89659,0.028618 45.72582,0.3676218 53.25419,2.6435486 17.24827,5.2143782 37.13241,19.4163622 42.16008,30.1122752 6.30505,13.413404 14.28123,64.723642 10.82055,69.607712 -3.79991,5.36278 -132.42595,53.63716 -151.03531,56.68476 -19.06566,3.12231 -45.700071,0.94371 -73.4014,-6.00399 -6.590823,-1.65303 -12.970969,-2.6265 -14.178102,-2.16329 -2.989505,1.14718 -3.009924,18.22091 -0.02926,24.46354 6.07837,12.73038 33.901768,20.84393 65.659073,19.14676 34.97408,-1.86908 64.05712,-12.17539 133.67775,-47.37213 43.58123,-22.03252 52.25937,-25.92823 59.0114,-26.49082 10.76627,-0.89707 17.80316,2.61115 18.43909,9.19276 0.80156,8.29605 -3.39336,14.18261 -16.0966,22.58768 -26.35406,17.43709 -104.59332,53.1958 -136.91727,62.57707 -43.66317,12.67222 -70.89194,16.63723 -99.311874,14.46164 l 2e-6,0 z"
     id="path3014"
     inkscape:connector-curvature="0" />
  <path
     style="fill:#1a1a1a;fill-opacity:1"
     d="m 299.48279,129.55508 c -1.92127,-4.95961 -3.70576,-9.88173 -4.51008,-12.44005 -0.4605,-1.46478 -1.05441,-3.23092 -1.31979,-3.92476 -0.26537,-0.69384 -0.68692,-1.95537 -0.93678,-2.80338 l -0.4543,-1.54189 0.58021,-0.44463 c 0.3191,-0.24455 0.62152,-0.40225 0.67201,-0.35042 0.0504,0.0518 0.21711,0.53575 0.37025,1.0754 0.15317,0.53965 0.55308,1.76964 0.88873,2.73332 0.33564,0.96366 1.09067,3.2344 1.67784,5.0461 1.25658,3.87712 2.28259,6.72889 4.00873,11.14207 0.69323,1.77238 1.26042,3.26959 1.26042,3.32715 0,0.0976 -0.99949,0.52893 -1.22565,0.52893 -0.0561,0 -0.51135,-1.05652 -1.01159,-2.34784 z"
     id="path3016"
     inkscape:connector-curvature="0" />
  <path
     style="fill:#333333;fill-opacity:1"
     d="M 80.484984,234.71045 C 66.269622,233.63323 52.107188,229.73657 39.00341,223.29719 21.141409,214.51956 10.312389,204.06787 8.105579,193.47597 c -2.028495,-9.73605 -0.634798,-18.37505 4.700538,-29.1369 4.363569,-8.8017 5.749639,-10.49565 20.270168,-24.77257 l 15.586318,-15.32485 0.993503,-18.1397 C 51.045811,80.728281 52.041032,74.473436 56.079261,65.733221 60.044545,57.15088 62.514362,53.622714 72.147822,42.779067 82.115152,31.55961 90.217752,25.914075 107.15821,18.38537 c 16.36949,-7.274952 22.63168,-9.1351 35.84438,-10.6473712 12.21152,-1.3976798 81.43323,-1.3646639 90.50693,0.043168 20.02388,3.1068115 44.8085,20.1751535 50.19286,34.5661525 4.16025,11.119254 10.25047,46.417666 10.25047,59.410841 0,4.95237 -0.34751,6.07267 -2.27182,7.32406 -8.78968,5.71587 -104.86071,42.25421 -135.59307,51.5696 -23.70187,7.18437 -43.92213,6.68218 -86.618879,-2.15123 -13.746118,-2.84391 -13.983294,-2.8582 -15.397936,-0.92843 -1.771009,2.4159 -1.920758,13.90319 -0.266866,20.4714 3.912954,15.53975 30.897824,24.27519 69.004291,22.33783 16.15283,-0.82123 30.15871,-3.60316 47.95826,-9.52575 19.79939,-6.58803 34.53754,-13.14807 85.04027,-37.85197 45.36016,-22.18835 54.55526,-26.16795 60.4626,-26.16795 5.11392,0 10.98185,2.17849 13.09128,4.8602 4.73368,6.0179 1.0503,14.91367 -9.48694,22.912 -17.26402,13.10434 -89.75504,47.7454 -127.99886,61.16645 -28.21659,9.90214 -63.42458,17.80566 -83.20242,18.67731 -6.10869,0.26923 -12.696984,0.60832 -14.640658,0.75352 -1.943674,0.14522 -8.039877,-0.0774 -13.547118,-0.49475 l 0,0 z"
     id="path3034"
     inkscape:connector-curvature="0" />
  <path
     style="fill:#333333;fill-opacity:1"
     d="m 219.06638,170.51042 c 0.084,-0.0492 2.82445,-1.3692 6.08979,-2.93335 9.08333,-4.35106 17.38989,-8.45825 32.65347,-16.14557 22.29521,-11.22872 34.28151,-17.09436 41.15517,-20.13978 0.77148,-0.34181 0.97919,-0.47537 0.96809,-0.62246 -0.008,-0.103 -0.61825,-1.77847 -1.35661,-3.72328 -2.00332,-5.27665 -2.46937,-6.58667 -4.37975,-12.31117 -0.96163,-2.88153 -1.77132,-5.26206 -1.79932,-5.29006 -0.028,-0.028 -0.30764,0.10433 -0.62144,0.29405 -0.78539,0.47485 -4.13261,2.1373 -6.26743,3.11282 -14.38939,6.5753 -47.73232,19.68798 -80.05123,31.48151 -2.86318,1.04481 -5.33,1.94729 -5.48182,2.00553 -0.27409,0.10514 -0.27581,0.10336 -0.24555,-0.25405 l 0.0305,-0.35993 3.97801,-1.4617 c 35.80847,-13.15764 70.19132,-26.65034 83.29256,-32.68613 6.26043,-2.8842 6.62477,-3.26954 6.89583,-7.29315 0.32321,-4.797828 -0.66198,-15.191172 -2.58143,-27.232901 -0.21528,-1.350558 -0.4182,-2.643409 -0.45092,-2.873004 l -0.0595,-0.417445 0.35713,0 c 0.19642,0 0.35713,0.02017 0.35713,0.04482 0,0.02465 0.10895,0.720802 0.24212,1.547002 1.11559,6.921593 2.04999,14.489234 2.52009,20.409988 0.16209,2.041434 0.2168,3.564696 0.22402,6.23712 0.0107,3.97916 -0.0846,4.883 -0.63406,6.01071 l -0.29648,0.60848 2.12092,6.36531 c 1.16651,3.50092 2.88084,8.39022 3.80962,10.86511 1.52232,4.05653 1.70802,4.4953 1.88512,4.45406 0.10804,-0.0252 0.96994,-0.36204 1.91534,-0.7486 3.34039,-1.36586 6.5391,-2.34251 8.88912,-2.71408 1.34019,-0.2119 5.91883,-0.30047 7.47559,-0.14461 3.53211,0.35363 6.62735,1.40914 8.66227,2.95392 1.8982,1.44101 3.02804,3.26541 3.46681,5.59797 0.19302,1.02616 0.16543,3.9937 -0.0479,5.15641 -0.67083,3.65544 -2.37482,6.60058 -5.79979,10.02421 -4.73564,4.7338 -12.43508,9.85561 -26.08385,17.35147 -5.8903,3.23494 -5.23133,2.9263 -6.24595,2.92548 l -0.87517,-6.9e-4 2.75023,-1.45606 c 3.85178,-2.03926 8.99613,-4.89062 12.52335,-6.94134 8.97938,-5.22058 13.57537,-8.50114 17.08917,-12.19803 6.4961,-6.8346 8.04122,-13.53819 4.2268,-18.33824 -2.05844,-2.59032 -7.31872,-4.62249 -12.52507,-4.83872 -3.83663,-0.15933 -8.25572,1.25786 -19.25158,6.17396 -7.9577,3.55776 -16.87516,7.81706 -42.5794,20.33742 -24.34349,11.85756 -35.60223,17.26543 -35.93264,17.25942 -0.14514,-0.003 -0.14644,-0.0133 -0.0113,-0.0924 l 0,0 z"
     id="path3036"
     inkscape:connector-curvature="0" />
  <path
     style="fill:#333333;fill-opacity:1"
     d="m 290.62689,72.555348 c -0.30258,-1.916841 -1.41722,-7.962207 -2.03286,-11.02546 -1.97327,-9.818349 -3.89721,-17.101784 -5.43171,-20.562726 C 279.49685,32.699977 269.04201,22.983683 256.26789,15.972587 248.00906,11.439716 239.03088,8.3137016 232.26353,7.614772 228.39274,7.2149976 219.69062,6.9263107 208.30557,6.8199831 205.11825,6.790216 201.8806,6.7403041 201.11078,6.7090677 l -1.39967,-0.056793 0,-0.3335671 0,-0.3335671 2.33278,6.695e-4 c 4.80346,0.00138 16.91529,0.2020415 20.8477,0.3453945 11.26999,0.4108387 15.38935,1.129457 22.7913,3.9759239 11.05501,4.25127 23.23314,12.029737 30.549,19.512374 4.14998,4.244588 6.04018,6.970082 7.58464,10.936355 2.29421,5.891672 5.4286,19.060761 7.43421,31.234713 0.11125,0.675278 0.22471,1.327229 0.25215,1.448779 0.045,0.199362 0.0131,0.221001 -0.32585,0.221001 l -0.37572,0 -0.17443,-1.105002 0,0 z"
     id="path3038"
     inkscape:connector-curvature="0" />
  <path
     style="fill:#333333;fill-opacity:1"
     d="m 80.97277,33.353837 c 0,-0.413777 0.02901,-0.454413 0.859446,-1.203805 4.238742,-3.825085 8.208539,-6.377838 15.131488,-9.730209 C 124.77665,8.9516772 132.06244,7.0483454 159.15777,6.1723151 160.96752,6.1138034 170.81308,6.0427272 181.0368,6.0143679 l 18.58859,-0.051562 0,0.3549455 0,0.3549455 -11.32013,0.00166 c -19.43864,0.00284 -37.87966,0.3778015 -43.83173,0.8912217 -1.94336,0.1676322 -5.74203,0.6602194 -8.25068,1.0698947 -8.33562,1.3612495 -14.37827,3.3082207 -26.07804,8.4024657 -7.06303,3.075345 -11.416574,5.161505 -15.576506,7.464057 -4.536165,2.5108 -8.815672,5.390737 -12.244319,8.239936 -0.688423,0.572077 -1.274074,1.040141 -1.301446,1.040141 -0.02737,0 -0.04977,-0.192704 -0.04977,-0.428232 z"
     id="path3040"
     inkscape:connector-curvature="0" />
  <path
     style="fill:#333333;fill-opacity:1"
     d=""
     id="path3042"
     inkscape:connector-curvature="0" />
  <path
     style="fill:#333333;fill-opacity:1"
     d="m 48.955839,111.0094 c 0.028,-0.36465 0.117311,-2.1879 0.198462,-4.05167 0.615087,-14.126613 1.621696,-26.565481 2.503808,-30.940044 0.511632,-2.537279 1.90426,-6.753084 3.212183,-9.724014 3.195913,-7.259477 7.778665,-13.986178 14.989345,-22.001809 2.086557,-2.319487 6.221768,-6.625353 8.750731,-9.111864 l 2.267308,-2.229248 0.05268,0.440215 c 0.05212,0.435568 0.04642,0.445909 -0.540223,0.979752 -4.024058,3.661865 -7.572301,7.424453 -12.783155,13.555372 -5.028786,5.916703 -7.30265,9.225264 -9.956985,14.487799 -5.602084,11.106799 -6.528304,16.245123 -8.100173,44.936731 -0.236194,4.31129 -0.237303,4.32179 -0.456582,4.32179 -0.172032,0 -0.183911,-0.0573 -0.137398,-0.66301 z"
     id="path3044"
     inkscape:connector-curvature="0" />
  <path
     style="fill:#333333;fill-opacity:1"
     d="m 49.004518,111.1509 c 0,-0.2328 0.0673,-1.69711 0.149557,-3.25401 0.08226,-1.5569 0.149369,-2.96868 0.149139,-3.13728 -0.0011,-0.83874 0.448848,-8.501931 0.764924,-13.026345 0.160396,-2.295948 0.296032,-4.240751 0.301414,-4.321784 0.02503,-0.376924 0.123854,-1.459011 0.161463,-1.768003 0.02301,-0.189078 0.13277,-1.294079 0.243904,-2.455559 0.497111,-5.195384 0.921696,-7.599321 1.907176,-10.798134 0.240252,-0.779845 0.416908,-1.450121 0.392569,-1.489502 -0.02434,-0.03938 -0.0054,-0.08643 0.04219,-0.104548 0.04754,-0.01812 0.276084,-0.563346 0.507869,-1.211613 0.231784,-0.648268 0.568938,-1.525315 0.749231,-1.948995 0.180292,-0.42368 0.305352,-0.806655 0.27791,-0.851057 -0.02744,-0.0444 -0.01304,-0.09556 0.032,-0.113675 0.04504,-0.01812 0.336094,-0.585445 0.646782,-1.260724 1.706912,-3.709965 3.901602,-7.459901 6.576545,-11.236947 0.493663,-0.697057 0.886519,-1.304807 0.873014,-1.350557 -0.01351,-0.04575 0.01675,-0.08318 0.06723,-0.08318 0.05048,0 0.456942,-0.475151 0.903246,-1.05589 1.243961,-1.618668 3.230894,-4.03278 4.729055,-5.745775 0.744256,-0.85098 1.338115,-1.547236 1.319689,-1.547236 -0.01843,0 0.324194,-0.364651 0.761381,-0.810335 0.437186,-0.445684 1.540557,-1.605935 2.451935,-2.578337 2.944056,-3.14118 7.749691,-7.915371 7.83396,-7.782699 0.207761,0.327099 0.05688,0.568502 -0.975803,1.561227 -4.885885,4.69684 -7.827137,7.851328 -12.852789,13.784594 -4.524809,5.341973 -6.894364,8.85088 -9.518257,14.09491 -2.514419,5.025238 -3.720618,8.14719 -4.710445,12.191836 -1.369117,5.594509 -2.106561,12.397122 -2.996053,27.637329 -0.551133,9.44291 -0.523796,9.08557 -0.695062,9.08557 -0.05157,0 -0.09377,-0.19047 -0.09377,-0.42328 z"
     id="path3046"
     inkscape:connector-curvature="0" />
  <path
     style="fill:#333333;fill-opacity:1"
     d="m 49.397999,111.54963 c 7.9e-4,-0.16374 0.342191,-6.16411 0.590988,-10.38702 0.476319,-8.084714 1.088692,-15.383782 1.618557,-19.292112 0.138404,-1.020878 0.23627,-1.902263 0.21748,-1.958633 -0.03702,-0.111071 -0.161119,0.704722 -0.46846,3.079609 -0.518027,4.002899 -1.020544,10.439513 -1.660207,21.265146 -0.408649,6.91596 -0.441471,7.31756 -0.598067,7.31756 -0.12597,0 -0.119173,-0.464 0.05512,-3.76289 0.08189,-1.54996 0.14766,-2.93963 0.146158,-3.08817 -0.007,-0.69355 0.357459,-6.92587 0.687868,-11.762075 0.419713,-6.143359 0.465689,-6.769308 0.541077,-7.366678 0.02727,-0.216089 0.161211,-1.519991 0.297646,-2.89756 0.49552,-5.003219 0.848389,-7.006405 1.766504,-10.028189 0.239588,-0.788553 0.451629,-1.517854 0.471203,-1.620669 0.01957,-0.102815 0.12443,-0.385837 0.233014,-0.628937 0.108584,-0.243101 0.230484,-0.552501 0.270888,-0.687557 0.0404,-0.135056 0.294071,-0.810846 0.563703,-1.501756 0.269632,-0.69091 0.499681,-1.309711 0.51122,-1.375113 0.01154,-0.0654 0.11877,-0.306763 0.238293,-0.536358 0.119524,-0.229595 0.192574,-0.417445 0.162335,-0.417445 -0.03024,0 -0.0092,-0.05525 0.04667,-0.122778 0.05591,-0.06753 0.624538,-1.16148 1.263621,-2.431004 1.637199,-3.252259 3.156333,-5.765946 5.52996,-9.150337 0.479644,-0.683891 0.872079,-1.291642 0.872079,-1.350558 0,-0.05892 0.03785,-0.10712 0.08411,-0.10712 0.04626,0 0.60921,-0.674051 1.250996,-1.497891 1.413954,-1.815043 2.706405,-3.378839 4.38009,-5.299666 0.692224,-0.794441 1.25859,-1.460871 1.25859,-1.480956 0,-0.02009 0.299334,-0.34249 0.665187,-0.716455 0.365851,-0.373964 1.455432,-1.519736 2.421289,-2.54616 3.124832,-3.320783 7.946667,-8.11158 8.030806,-7.979112 0.209554,0.329921 0.0532,0.568414 -1.123156,1.713178 -0.661773,0.644002 -1.485266,1.433291 -1.829983,1.753976 -1.845851,1.717166 -6.213782,6.45109 -9.691463,10.503522 -5.704126,6.646836 -7.920287,9.88779 -10.947791,16.010246 -1.44283,2.917803 -2.286378,4.827969 -2.99327,6.778089 -0.520016,1.434579 -1.148855,3.48229 -1.107494,3.606371 0.01633,0.04899 0.17045,-0.395419 0.342492,-0.987572 0.854647,-2.941619 2.572223,-6.997756 4.665396,-11.017557 2.881749,-5.534209 6.013046,-9.747545 13.577548,-18.26936 7.763014,-8.745448 13.688843,-13.600399 22.840698,-18.713072 4.296982,-2.400504 12.474464,-6.236696 19.486734,-9.141548 l 1.75759,-0.728088 43.59638,0 43.59639,0 0.0248,48.472737 0.0248,48.472742 -76.83445,0 c -61.402388,0 -76.834323,-0.0247 -76.833851,-0.12278 z m 2.831398,-33.813052 c -0.0036,-0.108045 -0.08811,0.201356 -0.187799,0.687556 -0.09969,0.486201 -0.178451,0.994502 -0.175033,1.129558 0.0034,0.135055 0.08793,-0.174345 0.187799,-0.687557 0.09987,-0.513212 0.178636,-1.021513 0.175033,-1.129557 z m 0.35088,-1.66978 c 0.03812,-0.303525 0.01796,-0.270014 -0.08863,0.147333 -0.07589,0.297123 -0.160181,0.717023 -0.187319,0.933113 -0.03812,0.303524 -0.01796,0.270013 0.08863,-0.147334 0.07589,-0.297123 0.16018,-0.717023 0.187319,-0.933112 z m 0.51534,-2.25595 c -0.03374,-0.110095 -0.461301,1.547497 -0.447973,1.736728 0.0049,0.06948 0.114244,-0.271468 0.243001,-0.757669 0.128757,-0.486201 0.220995,-0.926777 0.204972,-0.979059 l 0,0 z"
     id="path3048"
     inkscape:connector-curvature="0" />
  <path
     style="fill:#333333;fill-opacity:1"
     d="m 23.054858,149.70902 c 2.107708,-2.23307 6.953223,-7.06518 16.37298,-16.32768 l 9.232902,-9.07878 0.07233,-0.83918 c 0.03978,-0.46155 0.227856,-3.75639 0.417946,-7.32186 0.19009,-3.56547 0.458237,-8.44463 0.595884,-10.84258 0.137646,-2.39795 0.236872,-4.49745 0.2205,-4.66556 -0.01637,-0.16811 -0.17759,2.13653 -0.358262,5.12142 -0.180672,2.9849 -0.351578,5.51535 -0.37979,5.62323 -0.09664,0.36954 -0.224828,0.19629 -0.224828,-0.30385 0,-0.27501 0.06316,-1.81096 0.140347,-3.41323 0.07719,-1.60227 0.141385,-2.97952 0.142654,-3.06056 0.01277,-0.81582 0.495154,-8.844813 0.746498,-12.425124 0.136529,-1.944803 0.27247,-3.889606 0.302092,-4.321784 0.09232,-1.346988 0.132632,-1.795703 0.388231,-4.321785 0.588102,-5.81221 0.905905,-7.660718 1.878605,-10.926995 0.2453,-0.823707 0.454399,-1.553008 0.464663,-1.620669 0.01026,-0.06766 0.05149,-0.175537 0.09161,-0.239724 0.04012,-0.06419 0.223045,-0.528288 0.406499,-1.031334 0.183453,-0.503048 0.497174,-1.334533 0.697159,-1.847745 0.199985,-0.513212 0.372897,-0.977312 0.384252,-1.031335 0.03067,-0.145909 0.295208,-0.701708 1.215513,-2.553781 1.598111,-3.216124 2.853813,-5.395114 4.698075,-8.152456 1.488432,-2.225341 1.410145,-2.13324 1.780582,-2.094822 l 0.310013,0.03215 -0.936856,1.375113 c -1.153528,1.693146 -2.779573,4.370895 -2.654195,4.370895 0.02418,0 0.252992,-0.36465 0.508464,-0.810334 0.625186,-1.090671 2.329888,-3.720979 2.864606,-4.420007 l 0.432024,-0.564778 70.075917,0 70.07592,0 0,45.164148 0,45.164145 -0.71212,0.25613 c -0.39166,0.14087 -3.40831,1.23433 -6.70367,2.42992 -3.29536,1.19558 -7.1039,2.56919 -8.46342,3.05246 l -2.47185,0.87867 -81.39665,0 -81.396656,0 1.182034,-1.25233 z M 50.058661,99.075387 c -0.02068,-0.229595 -0.0376,-0.04175 -0.0376,0.417445 0,0.459189 0.01692,0.647038 0.0376,0.417445 0.02068,-0.229595 0.02068,-0.605295 0,-0.83489 z m 0.09835,-1.568962 c -0.02075,-0.231023 -0.03802,-0.06644 -0.03837,0.365738 -3.93e-4,0.432178 0.01662,0.621196 0.03772,0.420041 0.02111,-0.201156 0.0214,-0.554756 6.88e-4,-0.785779 l -3.9e-5,0 z m 0.09786,-1.42463 c -0.02126,-0.203788 -0.03902,-0.06112 -0.03945,0.317032 -3.93e-4,0.378156 0.01696,0.544893 0.03866,0.370525 0.0217,-0.174368 0.02205,-0.483768 7.85e-4,-0.687557 l 7e-6,0 z m 0.09822,-1.375113 c -0.02126,-0.203788 -0.03902,-0.06112 -0.03945,0.317032 -3.93e-4,0.378156 0.01696,0.544893 0.03866,0.370524 0.0217,-0.174367 0.02205,-0.483767 7.86e-4,-0.687556 l 7e-6,0 z m 0.09822,-1.375113 c -0.02126,-0.203788 -0.03902,-0.06112 -0.03945,0.317032 -3.93e-4,0.378156 0.01696,0.544893 0.03866,0.370524 0.0217,-0.174367 0.02205,-0.483767 7.86e-4,-0.687556 l 7e-6,0 z m 0.194264,-2.433194 -0.003,-0.589334 -0.0695,0.736667 c -0.03823,0.405168 -0.06813,1.001869 -0.06646,1.326002 l 0.003,0.589335 0.0695,-0.736668 c 0.03823,-0.405167 0.06813,-1.001868 0.06646,-1.326002 z m 0.495556,-5.500453 c -0.02821,-0.334688 -0.349262,2.806664 -0.416602,4.076229 -0.02436,0.459189 0.065,-0.203812 0.198577,-1.473336 0.133573,-1.269524 0.231684,-2.440826 0.218025,-2.602893 z m 0.0936,-0.957668 c -0.02341,-0.12155 -0.04257,-0.0221 -0.04257,0.221001 0,0.2431 0.01915,0.34255 0.04257,0.221 0.02341,-0.12155 0.02341,-0.320451 0,-0.442001 z m 0.30223,-2.28367 c -0.0024,-0.162067 -0.06162,0.08103 -0.131485,0.540223 -0.06987,0.45919 -0.124811,0.989591 -0.122095,1.178669 0.0027,0.189078 0.06189,-0.05402 0.131486,-0.540223 0.0696,-0.486201 0.124543,-1.016602 0.122094,-1.178669 z m 0.198211,-1.473335 c -0.0037,-0.217351 -0.02565,-0.178691 -0.08366,0.147333 -0.04326,0.243101 -0.07639,0.574601 -0.07363,0.736668 0.0037,0.217351 0.02565,0.178691 0.08366,-0.147333 0.04326,-0.243101 0.07639,-0.574601 0.07363,-0.736668 z m 0.08667,-0.55864 c -0.03135,-0.07836 -0.05463,-0.05508 -0.05934,0.05934 -0.0043,0.103542 0.01895,0.161555 0.05159,0.128917 0.03264,-0.03264 0.03613,-0.117356 0.0078,-0.18826 l 4e-6,0 z m 0.09822,-0.785779 c -0.03135,-0.07836 -0.05463,-0.05508 -0.05934,0.05934 -0.0043,0.103542 0.01895,0.161555 0.05159,0.128917 0.03264,-0.03264 0.03613,-0.117356 0.0078,-0.18826 l 3e-6,0 z m 0.09919,-0.544493 c -0.0249,-0.09557 -0.04692,-0.04116 -0.04892,0.120909 -0.002,0.162067 0.01837,0.240258 0.04528,0.173759 0.0269,-0.0665 0.02854,-0.1991 0.0036,-0.294668 l -5e-6,0 z m 0.09521,-0.542092 c -0.02725,-0.06753 -0.04954,-0.01228 -0.04954,0.122778 0,0.135056 0.02229,0.190306 0.04954,0.122778 0.02725,-0.06753 0.02725,-0.178028 0,-0.245556 z m 0.296713,-1.467196 c -0.03135,-0.07836 -0.05463,-0.05508 -0.05934,0.05934 -0.0043,0.103542 0.01895,0.161555 0.05159,0.128917 0.03264,-0.03264 0.03613,-0.117356 0.0077,-0.18826 l 4e-6,0 z m 0.09822,-0.491112 c -0.03135,-0.07836 -0.05463,-0.05508 -0.05934,0.05934 -0.0043,0.103542 0.01895,0.161555 0.05159,0.128917 0.03264,-0.03264 0.03613,-0.117356 0.0078,-0.18826 l 4e-6,0 z m 0.505542,-2.044253 c 0.0018,-0.09026 -0.02981,-0.07124 -0.08153,0.04911 -0.04643,0.108045 -0.08312,0.284845 -0.08153,0.39289 0.0023,0.157921 0.01831,0.148289 0.08153,-0.04911 0.04325,-0.135055 0.07994,-0.311856 0.08153,-0.392889 z m 0.378459,-1.491752 c -0.03136,-0.07836 -0.05463,-0.05508 -0.05934,0.05934 -0.0043,0.103542 0.01895,0.161555 0.05159,0.128917 0.03264,-0.03264 0.03613,-0.117356 0.0078,-0.18826 l 4e-6,0 z m 0.874964,-2.706491 c -0.04445,-0.04445 -0.749093,2.041333 -0.738124,2.184869 0.0041,0.05392 0.180366,-0.407136 0.391655,-1.024569 0.211289,-0.617434 0.367201,-1.139569 0.346469,-1.1603 l 0,0 z m 0.60885,-1.400432 c 0.270081,-0.675279 0.650994,-1.577118 0.846472,-2.004087 0.195478,-0.426969 0.339269,-0.792454 0.319534,-0.812189 -0.07153,-0.07153 -1.734693,3.817377 -1.734693,4.056155 0,0.151189 0.09626,-0.05868 0.568687,-1.239879 z m 1.975372,-4.469118 c 0,-0.05402 -0.172425,0.233279 -0.383167,0.638446 -0.210742,0.405167 -0.383167,0.780868 -0.383167,0.83489 0,0.05402 0.172425,-0.233278 0.383167,-0.638445 0.210742,-0.405168 0.383167,-0.780868 0.383167,-0.834891 z M 57.588566,62.684 c 0.30375,-0.60775 0.530173,-1.105001 0.503162,-1.105001 -0.05438,0 -1.131198,2.117795 -1.131198,2.224737 0,0.121575 0.07011,-0.0034 0.628036,-1.119736 l 0,0 z m 1.041744,-1.989002 c 0.163622,-0.324134 0.275395,-0.589335 0.248384,-0.589335 -0.02701,0 -0.182985,0.265201 -0.346606,0.589335 -0.163622,0.324133 -0.275395,0.589334 -0.248384,0.589334 0.02701,0 0.182984,-0.265201 0.346606,-0.589334 z"
     id="path3050"
     inkscape:connector-curvature="0" />
  <path
     style="fill:#333333;fill-opacity:1"
     d="m 22.952853,149.80724 c 1.774497,-1.89656 7.207068,-7.31278 16.672949,-16.62277 4.915193,-4.83425 8.967957,-8.83807 9.006142,-8.89738 0.03819,-0.0593 0.226166,-2.97714 0.417737,-6.48404 0.19157,-3.50691 0.439712,-7.99851 0.551426,-9.98133 0.111713,-1.98281 0.188933,-3.72872 0.171597,-3.87978 -0.01733,-0.15106 -0.134899,1.4152 -0.261254,3.48059 -0.233848,3.82247 -0.267163,4.15165 -0.420165,4.15165 -0.11712,0 -0.107613,-0.73065 0.0524,-4.02711 0.07474,-1.53964 0.136442,-2.86564 0.137123,-2.94668 0.0097,-1.15248 0.721723,-12.359011 1.148325,-18.07291 0.09378,-1.256028 0.650168,-6.425631 0.839058,-7.795937 0.112667,-0.817343 0.311485,-2.016478 0.441819,-2.664745 0.244569,-1.216463 1.243617,-4.877957 1.475089,-5.406175 0.120214,-0.274329 0.513008,-1.305196 1.21484,-3.188282 0.397623,-1.066864 0.515641,-1.324491 1.55233,-3.388672 0.93768,-1.867039 2.084125,-3.974334 2.794128,-5.135917 0.207654,-0.339729 0.388033,-0.67107 0.400842,-0.736313 0.01281,-0.06524 0.07282,-0.162984 0.133347,-0.217201 0.06053,-0.05422 0.622675,-0.872079 1.249206,-1.817469 1.491981,-2.251288 1.434022,-2.182938 1.817979,-2.143933 l 0.316488,0.03215 -0.747459,1.080446 c -0.719198,1.039593 -1.057544,1.581545 -0.858494,1.375113 0.05209,-0.05402 0.336044,-0.451823 0.631008,-0.884001 0.294964,-0.432179 0.666606,-0.971952 0.82587,-1.199497 l 0.289572,-0.413717 70.10621,-0.0037 70.10622,-0.0037 0,45.169408 0,45.169405 -1.105,0.39798 c -0.60776,0.21889 -3.60231,1.30257 -6.65457,2.40818 -3.05226,1.10561 -6.68183,2.41301 -8.06572,2.90535 l -2.51616,0.89515 -81.40136,0 -81.401359,0 1.079832,-1.15411 z M 49.86198,102.46625 c -0.02126,-0.20379 -0.03902,-0.0611 -0.03945,0.31703 -3.93e-4,0.37816 0.01696,0.54489 0.03866,0.37053 0.0217,-0.17437 0.02206,-0.48377 7.86e-4,-0.68756 l 7e-6,0 z m 0.19408,-3.194419 c -0.02341,-0.12155 -0.04257,-0.0221 -0.04257,0.221001 0,0.2431 0.01915,0.34255 0.04257,0.221 0.02341,-0.12155 0.02341,-0.32045 0,-0.442001 z m 0.09822,-1.571557 c -0.02341,-0.121551 -0.04257,-0.0221 -0.04257,0.221 0,0.2431 0.01915,0.34255 0.04257,0.221 0.02341,-0.12155 0.02341,-0.32045 0,-0.442 z m 0.09661,-1.424225 c -0.02471,-0.09454 -0.04492,-0.01719 -0.04492,0.171889 0,0.189079 0.02021,0.266429 0.04492,0.17189 0.0247,-0.09454 0.0247,-0.24924 0,-0.343779 z m 0.09998,-1.423079 c -0.02349,-0.122179 -0.04361,-0.04534 -0.0447,0.170744 -0.0011,0.216089 0.01813,0.316055 0.04272,0.222146 0.02458,-0.09391 0.02547,-0.27071 0.002,-0.39289 l -2e-6,0 z m 0.09822,-1.375113 c -0.02349,-0.12218 -0.04361,-0.04534 -0.0447,0.170744 -0.0011,0.216089 0.01813,0.316055 0.04272,0.222146 0.02458,-0.09391 0.02548,-0.27071 0.002,-0.39289 l -2e-6,0 z m 0.09924,-1.424019 c -0.02258,-0.149304 -0.04165,-0.05046 -0.04239,0.21965 -6.87e-4,0.270111 0.01774,0.39227 0.04105,0.271462 0.02331,-0.120808 0.02392,-0.341808 0.0013,-0.491112 l 5e-6,0 z m 0.09706,-1.22913 c -0.02341,-0.12155 -0.04257,-0.0221 -0.04257,0.221 0,0.243101 0.01915,0.342551 0.04257,0.221001 0.02341,-0.12155 0.02341,-0.320451 0,-0.442001 z m 0.197609,-2.405097 c -0.02258,-0.149304 -0.04165,-0.05046 -0.04239,0.219649 -6.87e-4,0.270112 0.01774,0.39227 0.04105,0.271462 0.02331,-0.120807 0.02392,-0.341807 0.0013,-0.491111 l 5e-6,0 z m 0.09809,-1.081797 c -0.0225,-0.148561 -0.04092,-0.02701 -0.04092,0.270112 0,0.297122 0.01841,0.418672 0.04092,0.270111 0.02251,-0.148561 0.02251,-0.391662 0,-0.540223 z m 0.09835,-0.980873 c -0.02258,-0.149304 -0.04165,-0.05046 -0.04239,0.21965 -6.88e-4,0.270111 0.01773,0.392269 0.04105,0.271462 0.02331,-0.120808 0.02392,-0.341808 0.0013,-0.491112 l 5e-6,0 z m 0.09279,-0.738018 c -0.02725,-0.06753 -0.04954,-0.01228 -0.04954,0.122778 0,0.135055 0.02229,0.190305 0.04954,0.122778 0.02725,-0.06753 0.02725,-0.178028 0,-0.245556 z m 0.09822,-1.080446 c -0.02725,-0.06753 -0.04954,-0.01228 -0.04954,0.122778 0,0.135055 0.02229,0.190305 0.04954,0.122778 0.02725,-0.06753 0.02725,-0.178028 0,-0.245556 z m 0.09822,-0.982224 c -0.02725,-0.06753 -0.04954,-0.01228 -0.04954,0.122778 0,0.135056 0.02229,0.190306 0.04954,0.122778 0.02725,-0.06753 0.02725,-0.178028 0,-0.245556 z m 0.10088,-0.736668 c -0.02471,-0.09454 -0.04492,-0.01719 -0.04492,0.171889 0,0.189078 0.02021,0.266429 0.04492,0.17189 0.0247,-0.09454 0.0247,-0.24924 0,-0.343779 z m 0.09557,-0.638445 c -0.02725,-0.06753 -0.04954,-0.01228 -0.04954,0.122778 0,0.135056 0.02229,0.190306 0.04954,0.122778 0.02725,-0.06753 0.02725,-0.178028 0,-0.245556 z m 0.09822,-0.884001 c -0.02725,-0.06753 -0.04954,-0.01228 -0.04954,0.122778 0,0.135055 0.02229,0.190305 0.04954,0.122778 0.02725,-0.06753 0.02725,-0.178028 0,-0.245556 z m 0.09822,-0.589335 c -0.02725,-0.06753 -0.04954,-0.01228 -0.04954,0.122778 0,0.135056 0.02229,0.190306 0.04954,0.122778 0.02725,-0.06753 0.02725,-0.178028 0,-0.245556 z m 0.296713,-1.860086 c -0.03136,-0.07836 -0.05463,-0.05508 -0.05934,0.05934 -0.0043,0.103542 0.01895,0.161556 0.05159,0.128917 0.03264,-0.03264 0.03613,-0.117356 0.0078,-0.18826 l 4e-6,0 z m 2.528605,-9.41093 c 0.04565,-0.170659 0.03792,-0.200618 -0.02535,-0.09822 -0.05007,0.08103 -0.120588,0.257833 -0.156714,0.392889 -0.04565,0.17066 -0.03792,0.200618 0.02535,0.09822 0.05007,-0.08103 0.120588,-0.257833 0.156714,-0.392889 z m 0.249738,-0.638445 c 0,-0.05402 -0.04284,-0.03192 -0.09521,0.04911 -0.05237,0.08103 -0.09521,0.191533 -0.09521,0.245556 0,0.05402 0.04284,0.03192 0.09521,-0.04911 0.05237,-0.08103 0.09521,-0.191534 0.09521,-0.245556 z m 0.196445,-0.491112 c 0,-0.05402 -0.04285,-0.03192 -0.09521,0.04911 -0.05237,0.08103 -0.09521,0.191534 -0.09521,0.245556 0,0.05402 0.04285,0.03192 0.09521,-0.04911 0.05237,-0.08103 0.09521,-0.191534 0.09521,-0.245556 z m 0.290715,-0.687557 c 0,-0.05402 -0.06317,0.01228 -0.140373,0.147334 -0.0772,0.135056 -0.140373,0.289756 -0.140373,0.343778 0,0.05402 0.06317,-0.01228 0.140373,-0.147333 0.0772,-0.135056 0.140373,-0.289756 0.140373,-0.343779 z m 0.294667,-0.687556 c 0,-0.05402 -0.06317,0.01228 -0.140373,0.147333 -0.0772,0.135056 -0.140372,0.289756 -0.140372,0.343779 0,0.05402 0.06317,-0.01228 0.140372,-0.147334 0.0772,-0.135056 0.140373,-0.289756 0.140373,-0.343778 z m 0.298619,-0.687557 c 0,-0.05402 -0.04284,-0.03192 -0.09521,0.04911 -0.05237,0.08103 -0.09521,0.191534 -0.09521,0.245556 0,0.05402 0.04284,0.03192 0.09521,-0.04911 0.05237,-0.08103 0.09521,-0.191534 0.09521,-0.245556 z m 0.683604,-1.473335 c 0,-0.05402 -0.06317,0.01228 -0.140372,0.147333 -0.0772,0.135056 -0.140373,0.289756 -0.140373,0.343779 0,0.05402 0.06317,-0.01228 0.140373,-0.147334 0.0772,-0.135056 0.140372,-0.289756 0.140372,-0.343778 z m 0.978958,-1.989003 c 0.169247,-0.33764 0.285622,-0.61389 0.258611,-0.61389 -0.05508,0 -0.641274,1.134733 -0.641274,1.241349 0,0.113955 0.06187,0.01251 0.382663,-0.627459 z m 1.139784,-2.185448 c 0.08381,-0.162067 0.130278,-0.294667 0.103267,-0.294667 -0.02701,0 -0.117681,0.1326 -0.201489,0.294667 -0.08381,0.162067 -0.130278,0.294667 -0.103267,0.294667 0.02701,0 0.117681,-0.1326 0.201489,-0.294667 z m 0.638446,-1.178668 c 0.05782,-0.108045 0.08303,-0.196445 0.05602,-0.196445 -0.02701,0 -0.09642,0.0884 -0.154246,0.196445 -0.05782,0.108044 -0.08303,0.196445 -0.05602,0.196445 0.02701,0 0.09642,-0.0884 0.154246,-0.196445 z m 0.448918,-0.761224 c 0.149127,-0.256605 0.335372,-0.577056 0.413879,-0.712112 l 0.142738,-0.245556 -0.183545,0.220869 c -0.214509,0.258129 -0.756229,1.203356 -0.689656,1.203356 0.02499,0 0.167457,-0.209951 0.316584,-0.466557 z m 0.93881,-1.547002 c 0.09644,-0.196445 0.09644,-0.196445 -0.0635,0 -0.08797,0.108045 -0.203349,0.284845 -0.256393,0.39289 -0.09644,0.196444 -0.09644,0.196444 0.06351,0 0.08797,-0.108045 0.203348,-0.284845 0.256392,-0.39289 z"
     id="path3052"
     inkscape:connector-curvature="0" />
  <path
     style="fill:#333333;fill-opacity:1"
     d="m 22.757911,150.00368 c 1.447529,-1.56749 7.464957,-7.57274 16.990231,-16.95585 7.361746,-7.25186 8.961708,-8.87394 8.961706,-9.08557 -2e-6,-0.14169 0.110262,-2.20242 0.245029,-4.5794 0.441706,-7.79067 0.639174,-11.58146 0.626739,-12.03144 -0.0067,-0.24354 -0.07198,0.4633 -0.145008,1.57076 -0.150202,2.2779 -0.199833,2.652 -0.351833,2.652 -0.09893,0 -0.06806,-1.95907 0.07042,-4.46911 0.02086,-0.37816 0.06389,-1.21796 0.09561,-1.86623 0.03172,-0.64827 0.07734,-1.57647 0.101361,-2.06267 0.192896,-3.903606 0.75667,-12.649175 1.079573,-16.746913 0.299984,-3.806895 0.949627,-8.919183 1.379215,-10.853571 0.251545,-1.132679 1.172754,-4.475176 1.326459,-4.812896 0.10779,-0.236836 1.245979,-3.217894 1.387573,-3.634228 0.227622,-0.66928 1.86443,-3.987969 2.8573,-5.79328 0.326262,-0.593234 0.593203,-1.134685 0.593203,-1.203224 0,-0.06854 0.03374,-0.124617 0.07499,-0.124617 0.09374,0 1.129053,-1.78477 1.095497,-1.888522 -0.01351,-0.04176 0.01644,-0.07592 0.06656,-0.07592 0.09288,0 0.812911,-1.122119 0.791544,-1.233569 -0.0065,-0.03367 0.05079,-0.112437 0.127207,-0.175045 0.07642,-0.06261 0.523467,-0.677384 0.993443,-1.366168 0.817058,-1.197461 0.869358,-1.252335 1.1936,-1.252335 0.186505,0 0.3391,0.022 0.3391,0.04888 0,0.02689 -0.165528,0.279287 -0.367841,0.560891 -0.202312,0.281604 -0.321697,0.483489 -0.265299,0.448633 0.0564,-0.03486 0.255076,-0.287171 0.441507,-0.560701 l 0.338966,-0.497328 70.10621,-1.89e-4 70.10622,-1.9e-4 0,45.169915 0,45.169918 -4.39545,1.59598 c -2.4175,0.87779 -6.53359,2.36405 -9.14685,3.30282 l -4.7514,1.70684 -81.42498,0 -81.424972,0 0.884373,-0.95767 z m 26.907493,-44.20006 c -0.02119,-0.20258 -0.03853,-0.0368 -0.03853,0.36833 0,0.40517 0.01734,0.57092 0.03853,0.36834 0.02119,-0.20259 0.02119,-0.53409 0,-0.73667 z m 0.09438,-1.27689 c -0.02471,-0.0945 -0.04492,-0.0172 -0.04492,0.17189 0,0.18908 0.02021,0.26643 0.04492,0.17189 0.0247,-0.0945 0.0247,-0.24924 0,-0.34378 z m 0.09822,-1.86623 c -0.02471,-0.0945 -0.04492,-0.0172 -0.04492,0.17189 0,0.18908 0.02021,0.26643 0.04492,0.17189 0.02471,-0.0945 0.02471,-0.24924 0,-0.34378 z m 0.687916,-10.507921 c -0.0249,-0.09557 -0.04692,-0.04116 -0.04892,0.120909 -0.002,0.162067 0.01837,0.240258 0.04528,0.173758 0.0269,-0.0665 0.02854,-0.199099 0.0036,-0.294667 l -5e-6,0 z m 0.09521,-1.229649 c -0.02725,-0.06753 -0.04954,-0.01228 -0.04954,0.122778 0,0.135056 0.02229,0.190306 0.04954,0.122778 0.02725,-0.06753 0.02725,-0.178028 0,-0.245556 z m 0.199461,-2.404578 c -0.0249,-0.09557 -0.04692,-0.04116 -0.04892,0.120908 -0.002,0.162067 0.01837,0.240258 0.04528,0.173759 0.02691,-0.0665 0.02854,-0.1991 0.0036,-0.294667 l -5e-6,0 z m 0.09786,-1.082316 c -0.02471,-0.09454 -0.04492,-0.01719 -0.04492,0.17189 0,0.189078 0.02021,0.266428 0.04492,0.171889 0.0247,-0.09454 0.0247,-0.24924 0,-0.343779 z m 0.09858,-0.980354 c -0.0249,-0.09557 -0.04692,-0.04116 -0.04892,0.120909 -0.002,0.162067 0.01837,0.240258 0.04528,0.173758 0.02691,-0.0665 0.02854,-0.1991 0.0036,-0.294667 l -5e-6,0 z m 0.389873,-3.586986 c -0.02725,-0.06753 -0.04954,-0.01228 -0.04954,0.122778 0,0.135056 0.02229,0.190306 0.04954,0.122778 0.02725,-0.06753 0.02725,-0.178028 0,-0.245556 z m 3.369723,-14.070353 c 0,-0.05402 -0.04284,-0.03192 -0.09521,0.04911 -0.05237,0.08103 -0.09521,0.191533 -0.09521,0.245556 0,0.05402 0.04284,0.03192 0.09521,-0.04911 0.05237,-0.08103 0.09521,-0.191534 0.09521,-0.245556 z m 0.196445,-0.491112 c 0,-0.05402 -0.04285,-0.03192 -0.09521,0.04911 -0.05237,0.08103 -0.09521,0.191534 -0.09521,0.245556 0,0.05402 0.04285,0.03192 0.09521,-0.04911 0.05237,-0.08103 0.09521,-0.191534 0.09521,-0.245556 z m 0.884001,-2.06267 c 0,-0.05402 -0.04284,-0.03192 -0.09521,0.04911 -0.05237,0.08103 -0.09521,0.191534 -0.09521,0.245556 0,0.05402 0.04284,0.03192 0.09521,-0.04911 0.05237,-0.08103 0.09521,-0.191534 0.09521,-0.245556 z m 4.030126,-7.808678 c 0.05782,-0.108044 0.08303,-0.196445 0.05602,-0.196445 -0.02701,0 -0.09642,0.0884 -0.154246,0.196445 -0.05782,0.108045 -0.08303,0.196445 -0.05602,0.196445 0.02701,0 0.09642,-0.0884 0.154246,-0.196445 z m 1.709826,-2.725671 c 0.19939,-0.310628 0.259779,-0.443906 0.134197,-0.296174 -0.247917,0.291646 -0.603327,0.860953 -0.537481,0.860953 0.02242,0 0.203895,-0.25415 0.403284,-0.564779 z"
     id="path3054"
     inkscape:connector-curvature="0" />
  <path
     style="fill:#333333;fill-opacity:1"
     d="m 7.0293172,181.87684 c 0.025884,-0.28362 0.071484,-1.15657 0.1013351,-1.93989 0.2063001,-5.41362 1.2986867,-8.91196 5.1208297,-16.39932 3.384998,-6.63101 6.108443,-10.30524 12.37224,-16.69151 1.345698,-1.37201 3.728525,-3.71637 5.295172,-5.20969 5.876878,-5.6018 17.356106,-16.324 17.414269,-16.26584 0.03323,0.0332 -0.313276,0.4272 -0.770022,0.87547 -21.889685,21.48359 -24.884486,24.52151 -27.947124,28.34952 -1.873844,2.34213 -3.369941,4.79355 -5.394412,8.83899 -2.228566,4.45327 -3.6123556,7.89658 -4.571994,11.37658 -0.4633319,1.68021 -1.0063527,4.35987 -1.1681001,5.76424 -0.062219,0.54023 -0.1360273,1.17008 -0.1640175,1.39967 -0.033575,0.27541 -0.099266,0.41745 -0.1930644,0.41745 -0.112005,0 -0.1321871,-0.10942 -0.095112,-0.51567 z"
     id="path3056"
     inkscape:connector-curvature="0" />
  <path
     style="fill:#333333;fill-opacity:1"
     d="m 7.0705626,181.79826 c -0.0064,-0.29442 3.615e-4,-0.57951 0.01502,-0.63353 0.014659,-0.054 0.045863,-0.51812 0.069342,-1.03134 0.1840628,-4.02317 0.8032082,-6.85881 2.2893897,-10.48523 0.3154871,-0.76982 0.5429238,-1.40035 0.5054149,-1.40118 -0.037509,-7.8e-4 -0.019657,-0.034 0.03967,-0.0737 0.11987,-0.0802 1.742978,-3.50892 1.712009,-3.61652 -0.01075,-0.0374 0.02075,-0.095 0.07001,-0.128 0.04925,-0.0331 0.512296,-0.8557 1.028985,-1.8281 0.51669,-0.9724 1.171351,-2.1658 1.454802,-2.652 0.283451,-0.4862 0.516651,-0.93925 0.518221,-1.00678 0.0016,-0.0675 0.03655,-0.12278 0.07773,-0.12278 0.04118,0 0.287964,-0.34213 0.548408,-0.7603 1.129535,-1.81355 2.788171,-4.04172 4.424222,-5.94338 0.453151,-0.52671 0.810427,-0.95738 0.793948,-0.95704 -0.09419,0.002 2.856288,-3.04683 5.709715,-5.9 3.751264,-3.75092 19.10537,-18.25217 19.212356,-18.14518 0.02398,0.024 -2.862118,2.89828 -6.413544,6.38735 -8.101316,7.95907 -16.509842,16.41304 -18.050759,18.14832 -3.72515,4.19502 -5.303719,6.5798 -8.094587,12.22868 -3.3140446,6.70782 -4.9350891,11.70532 -5.6074528,17.28714 -0.1351038,1.1216 -0.2854593,1.43608 -0.3028976,0.63353 z"
     id="path3058"
     inkscape:connector-curvature="0" />
  <path
     style="fill:#333333;fill-opacity:1"
     d="m 86.789644,235.7249 c -10.456999,-0.43517 -18.187113,-1.53247 -26.96204,-3.82729 -11.876863,-3.10605 -22.901272,-7.91085 -32.118713,-13.99839 -4.633607,-3.0602 -7.96219,-5.81989 -11.953245,-9.91027 -5.171424,-5.30013 -7.0029826,-8.13304 -7.9297197,-12.26506 -0.5413531,-2.41372 -0.7095709,-4.43624 -0.8044936,-9.6726 -0.056167,-3.09844 -0.045311,-3.65878 0.070885,-3.65878 0.114143,0 0.1382278,0.47473 0.1432642,2.82389 0.00759,3.54056 0.3171559,6.24524 1.0370788,9.06101 2.3977742,9.37821 11.1175372,18.35229 25.6733502,26.42215 10.866782,6.02462 22.938908,10.34808 35.065385,12.55815 4.560043,0.83108 8.342786,1.285 13.603797,1.63244 6.301151,0.41612 9.846126,0.45329 15.028022,0.15759 1.917792,-0.10944 4.967595,-0.26725 6.777345,-0.35071 9.79918,-0.45186 15.05533,-1.00347 24.40826,-2.56155 11.07815,-1.84547 26.40405,-5.27362 37.27538,-8.33788 0.67528,-0.19034 1.28303,-0.34653 1.35056,-0.34711 0.19682,-0.002 0.1524,0.56599 -0.0491,0.62771 -1.47226,0.45095 -10.57111,2.79211 -14.88833,3.83081 -18.45502,4.4402 -33.14807,6.78724 -48.09676,7.68289 -2.91314,0.17455 -14.527388,0.26216 -17.630916,0.133 z"
     id="path3060"
     inkscape:connector-curvature="0" />
  <path
     style="fill:#333333;fill-opacity:1"
     d="m 89.713281,198.99489 c -12.703863,-2.02532 -22.053328,-5.44295 -28.456998,-10.40224 -0.969292,-0.75066 -3.367048,-3.01513 -3.367048,-3.17987 0,-0.0546 0.479749,0.36422 1.066109,0.93072 5.896934,5.69717 16.980341,10.20396 30.723987,12.49314 1.12613,0.18757 2.158009,0.35956 2.293064,0.3822 0.14773,0.0248 0.08903,0.0429 -0.147333,0.0456 -0.216089,0.002 -1.166391,-0.11885 -2.111781,-0.26958 z"
     id="path3062"
     inkscape:connector-curvature="0" />
  <path
     style="fill:#333333;fill-opacity:1"
     d="m 167.58845,223.72093 0,-0.33888 0.81034,-0.2189 c 7.38094,-1.99385 18.90876,-5.67622 26.91884,-8.59878 24.10525,-8.79501 61.73498,-25.58112 90.75321,-40.48376 1.93307,-0.99275 3.5381,-1.80501 3.56673,-1.80501 0.0286,0 0.0386,0.20772 0.0221,0.4616 l -0.0299,0.4616 -4.71467,2.3917 c -36.2611,18.39477 -81.17992,37.68843 -103.87015,44.61462 -2.01537,0.61519 -9.85778,2.85687 -12.22653,3.49485 -0.53904,0.14517 -1.03629,0.28553 -1.105,0.3119 -0.0862,0.0331 -0.12494,-0.0571 -0.12494,-0.29094 z"
     id="path3064"
     inkscape:connector-curvature="0" />
  <path
     style="fill:#333333;fill-opacity:1"
     d=""
     id="path3066"
     inkscape:connector-curvature="0" />
  <path
     style="fill:#333333;fill-opacity:1"
     d="m 134.97863,199.17634 c 12.62761,-1.76409 23.13836,-4.28921 36.14583,-8.68376 11.82368,-3.99461 25.98041,-9.81864 42.65112,-17.54652 2.79459,-1.29546 5.14725,-2.34093 5.22813,-2.32325 0.31474,0.0688 -15.26752,7.23802 -22.63611,10.41467 -9.92564,4.27901 -19.04991,7.69382 -29.04056,10.8686 -9.38784,2.98322 -17.25974,4.95861 -25.08077,6.29382 -3.67285,0.62703 -7.69064,1.196 -8.28585,1.17338 -0.16929,-0.006 0.2889,-0.0951 1.01821,-0.19694 z"
     id="path3068"
     inkscape:connector-curvature="0" />
  <path
     style="fill:#333333;fill-opacity:1"
     d="m 97.850572,235.41226 0,-0.33262 5.377678,-0.27853 c 4.92664,-0.25517 6.27938,-0.35075 4.96397,-0.35075 -0.61718,0 -8.31306,0.36498 -9.482202,0.44969 l -0.859446,0.0623 0,-17.45759 0,-17.45758 0.61389,0.0701 c 0.337639,0.0385 1.070953,0.0883 1.629588,0.11062 0.55863,0.0223 1.05546,0.0651 1.10407,0.0952 0.0486,0.03 0.36939,0.0455 0.71286,0.0344 0.34347,-0.0111 0.66552,0.005 0.71566,0.0361 0.36602,0.22622 15.06849,0.29232 19.14108,0.0861 18.088,-0.91608 32.15963,-3.80217 52.35252,-10.7375 17.96194,-6.16911 31.74846,-12.34388 79.10497,-35.42989 l 12.31377,-6.00288 12.06993,0 12.06994,0 0,11.91406 0,11.91406 -4.83745,2.46746 c -6.63956,3.38666 -9.79244,4.95214 -16.42769,8.15676 -26.95427,13.01804 -54.05682,24.78327 -72.80635,31.60527 -1.90374,0.69268 -3.44627,1.2745 -3.42784,1.29293 0.0783,0.0783 5.49124,-1.89353 10.37609,-3.77979 22.66388,-8.75148 54.03706,-22.85992 80.1249,-36.03195 l 6.90012,-3.48395 0,0.39929 c 0,0.35963 -0.0342,0.41558 -0.34378,0.56323 -0.18908,0.0902 -0.34378,0.20256 -0.34378,0.24976 0,0.0472 -0.0442,0.0585 -0.0982,0.0251 -0.054,-0.0334 -0.0982,-0.0139 -0.0982,0.0433 0,0.0572 -0.0332,0.0946 -0.0737,0.0832 -0.10537,-0.0298 -4.68344,2.2885 -4.72306,2.39177 -0.0181,0.0472 -0.0734,0.0609 -0.12278,0.0303 -0.0494,-0.0305 -0.0898,-0.001 -0.0898,0.0649 0,0.0662 -0.0271,0.0933 -0.0602,0.0602 -0.0559,-0.0559 -7.8854,3.80643 -7.99406,3.94349 -0.027,0.0341 -0.11541,0.0762 -0.19644,0.0936 -0.29879,0.0641 -4.8129,2.31228 -4.8129,2.39696 0,0.0482 -0.0442,0.0604 -0.0982,0.027 -0.054,-0.0334 -0.0982,-0.0233 -0.0982,0.0224 0,0.0457 -0.0774,0.09 -0.17189,0.0984 -0.1798,0.016 -6.51989,3.04441 -6.60546,3.15517 -0.027,0.035 -0.11541,0.0767 -0.19644,0.0928 -0.28902,0.0573 -1.86623,0.83988 -1.86623,0.92599 0,0.0483 -0.0394,0.0634 -0.0876,0.0336 -0.10323,-0.0638 -3.18757,1.38797 -3.23582,1.52307 -0.0181,0.0507 -0.0717,0.0683 -0.11909,0.039 -0.0801,-0.0495 -1.06465,0.39616 -1.17397,0.53146 -0.027,0.0334 -0.11541,0.0746 -0.19644,0.0914 -0.20902,0.0435 -3.76697,1.68654 -3.8287,1.7681 -0.0281,0.0371 -0.12076,0.0787 -0.20594,0.0924 -0.19237,0.031 -3.55787,1.58825 -3.62615,1.67786 -0.0273,0.0358 -0.12235,0.0771 -0.21118,0.0917 -0.19466,0.0319 -4.72874,2.08319 -4.79872,2.171 -0.027,0.0339 -0.12242,0.0737 -0.21202,0.0884 -0.192,0.0316 -1.68094,0.70842 -1.75242,0.79661 -0.027,0.0333 -0.11541,0.0742 -0.19645,0.0908 -0.31276,0.0641 -5.06187,2.20391 -5.13038,2.31158 -0.0398,0.0626 -0.0731,0.08 -0.0739,0.0388 -9.8e-4,-0.0412 -0.14515,-0.0131 -0.32073,0.0625 -3.63079,1.56408 -6.71084,2.94259 -6.73662,3.01506 -0.0181,0.0509 -0.0669,0.0716 -0.10852,0.0459 -0.0746,-0.0461 -3.74142,1.48851 -3.83654,1.60567 -0.027,0.0333 -0.11889,0.0717 -0.20417,0.0855 -0.0853,0.0137 -0.99139,0.38203 -2.01356,0.81841 -1.02217,0.43638 -2.4994,1.05927 -3.28272,1.38421 -0.78332,0.32493 -1.44633,0.61964 -1.47334,0.65492 -0.027,0.0353 -0.0933,0.0641 -0.14733,0.0641 -0.12366,0 -3.61672,1.43569 -3.68334,1.5139 -0.027,0.0317 -0.11541,0.0717 -0.19644,0.089 -0.081,0.0172 -1.71644,0.66237 -3.63423,1.43368 -1.91779,0.77131 -4.4814,1.79241 -5.6969,2.2691 -1.2155,0.47669 -2.24247,0.91444 -2.28217,0.97277 -0.0397,0.0583 -0.0728,0.0733 -0.0737,0.0332 -9.8e-4,-0.04 -0.27776,0.0326 -0.61539,0.1614 -0.33764,0.12881 -1.73356,0.65846 -3.10204,1.17699 -1.3685,0.51853 -2.5398,0.97506 -2.6029,1.01451 -0.0631,0.0395 -0.16019,0.0787 -0.21574,0.0872 -0.19999,0.0306 -4.32016,1.53809 -4.36812,1.59826 -0.027,0.0339 -0.11541,0.0668 -0.19644,0.0731 -0.18301,0.0143 -3.37027,1.13752 -3.43778,1.21156 -0.027,0.0296 -0.0933,0.0539 -0.14734,0.0539 -0.18907,0 -4.81321,1.56894 -4.84584,1.64416 -0.0181,0.0418 -0.0652,0.056 -0.10463,0.0317 -0.0394,-0.0244 -0.555,0.10864 -1.14572,0.29558 -0.59072,0.18694 -2.22324,0.67493 -3.62782,1.08444 -1.40458,0.4095 -2.60205,0.78413 -2.66104,0.83251 -0.059,0.0484 -0.13022,0.065 -0.15827,0.037 -0.0281,-0.0281 -0.17869,0.002 -0.33474,0.0658 -0.15606,0.0643 -0.31535,0.1102 -0.35399,0.10211 -0.0386,-0.008 -0.19335,0.0349 -0.34378,0.0956 -0.15044,0.0607 -0.36192,0.12364 -0.46997,0.13991 -0.10804,0.0163 -1.6282,0.43366 -3.37812,0.92755 -3.2512,0.9176 -3.40391,0.94055 -3.32543,0.49985 0.0162,-0.0912 1.26017,-0.49075 3.70777,-1.191 2.02584,-0.57959 5.20824,-1.52678 7.07201,-2.10485 3.81887,-1.18449 13.28595,-4.31782 13.53757,-4.48054 0.14198,-0.0918 0.13761,-0.0976 -0.032,-0.042 -0.10805,0.0354 -2.36225,0.78671 -5.00934,1.66957 -26.5974,8.87086 -56.93123,15.58689 -76.26967,16.88641 -1.05344,0.0708 -1.65014,0.13454 -1.326,0.14167 1.26791,0.0279 6.77225,-0.45458 10.5589,-0.92554 11.5602,-1.43776 30.03757,-5.25128 44.42094,-9.16798 3.22972,-0.87947 3.21691,-0.87705 3.21691,-0.60824 0,0.12321 -0.091,0.24915 -0.221,0.30582 -0.31561,0.13758 -5.51811,1.50609 -9.55213,2.51268 -1.89078,0.47179 -3.4526,0.8948 -3.47072,0.94001 -0.0181,0.0452 -0.0711,0.0586 -0.11779,0.0298 -0.0467,-0.0288 -0.60644,0.0785 -1.24395,0.2385 -0.6375,0.16001 -2.1536,0.51985 -3.3691,0.79965 -1.21551,0.27979 -2.24978,0.53249 -2.29838,0.56155 -0.0486,0.0291 -0.2374,0.0662 -0.41953,0.0825 -0.18214,0.0164 -0.38347,0.062 -0.44741,0.10157 -0.0639,0.0395 -0.25085,0.086 -0.41536,0.10321 -0.16451,0.0173 -0.36541,0.0585 -0.44644,0.0917 -0.081,0.0332 -0.25783,0.0729 -0.39289,0.0883 -0.34394,0.0391 -4.92784,1.02476 -5.10756,1.09824 -0.081,0.0331 -0.17343,0.0556 -0.20533,0.0499 -0.0319,-0.006 -1.7336,0.31936 -3.78156,0.72236 -2.04796,0.40301 -3.89331,0.75313 -4.10076,0.77806 -0.20746,0.0249 -1.28125,0.2017 -2.38619,0.39285 -2.7249,0.47137 -8.11952,1.26715 -10.39842,1.5339 -1.02642,0.12014 -1.88832,0.24435 -1.91533,0.27601 -0.027,0.0317 -0.22591,0.0597 -0.442,0.0623 -0.51299,0.006 -4.96533,0.43803 -5.15644,0.50018 -0.0809,0.0263 -0.4566,0.0657 -0.83489,0.0874 -0.37829,0.0218 -1.9033,0.13029 -3.38891,0.24114 -2.65715,0.19825 -3.2758,0.22738 -7.440343,0.35032 l -2.087225,0.0616 0,-0.33261 z"
     id="path3070"
     inkscape:connector-curvature="0" />
  <path
     style="fill:#333333;fill-opacity:1"
     d=""
     id="path3072"
     inkscape:connector-curvature="0" />
  <path
     style="fill:#333333;fill-opacity:1"
     d="m 117.39682,166.18061 c -5.75945,-0.24914 -15.27006,-1.0911 -18.803328,-1.66463 -0.327572,-0.0532 -0.628737,-0.097 -0.669253,-0.0974 -0.04052,-4.1e-4 -0.07367,-0.17955 -0.07367,-0.39808 0,-0.3938 0.0028,-0.39687 0.319223,-0.34375 2.064945,0.34667 9.972475,1.22985 13.186355,1.47276 3.83546,0.28988 5.06402,0.35085 8.94293,0.44377 11.76088,0.28173 22.4084,-1.06408 33.48913,-4.23292 5.84639,-1.67194 17.16613,-5.44617 30.25249,-10.08679 3.86803,-1.37166 14.85389,-5.32112 15.49458,-5.57036 0.14365,-0.0559 0.17188,-0.0105 0.17188,0.27604 0,0.40911 0.95174,0.0248 -7.75956,3.13367 -18.08105,6.45283 -34.1334,11.81155 -42.1374,14.06665 -2.20724,0.62188 -4.76392,1.27047 -6.04051,1.53237 -2.30555,0.473 -7.2651,1.0534 -11.39396,1.3334 -2.68838,0.18231 -11.95663,0.26602 -14.97891,0.13529 z"
     id="path3074"
     inkscape:connector-curvature="0" />
  <path
     style="fill:#333333;fill-opacity:1"
     d="m 54.378041,179.71814 c -1.026268,-2.73488 -1.638895,-7.47361 -1.638895,-12.67702 0,-3.42638 0.167093,-5.4558 0.608221,-7.38709 0.284871,-1.24719 0.656755,-2.01445 1.277012,-2.63471 0.787494,-0.7875 1.349904,-0.88333 3.569041,-0.60818 1.649897,0.20457 2.39011,0.34439 11.159383,2.10792 12.113397,2.43605 17.645737,3.45167 24.916824,4.57421 1.919399,0.29632 3.504165,0.53877 3.521701,0.53877 0.01754,0 0.03188,0.1788 0.03188,0.39734 0,0.39345 -0.0031,0.39683 -0.319223,0.34539 -0.175573,-0.0286 -0.827524,-0.12197 -1.44878,-0.20756 -7.298281,-1.0055 -15.984815,-2.70049 -25.373032,-4.95099 -7.511135,-1.80054 -10.90682,-2.41805 -13.866803,-2.5217 -1.702068,-0.0596 -1.892217,0.004 -2.394575,0.79572 -0.888872,1.4016 -1.371311,4.28225 -1.456304,8.69558 -0.09868,5.12392 0.398581,9.66662 1.439071,13.14665 0.238226,0.79677 0.221811,1.04479 -0.02552,0.38567 z"
     id="path3076"
     inkscape:connector-curvature="0" />
  <path
     style="fill:#333333;fill-opacity:1"
     d="m 289.67843,172.68224 0.001,-0.45575 1.56565,-0.81438 1.56565,-0.81438 0.80129,0.0286 0.80128,0.0286 -2.36806,1.24152 -2.36807,1.24153 0.001,-0.45575 z"
     id="path3078"
     inkscape:connector-curvature="0" />
  <path
     style="fill:#333333;fill-opacity:1"
     d="m 227.76235,166.64366 c 0.0225,-0.0183 2.09623,-1.01889 4.60827,-2.22353 2.51203,-1.20464 11.37415,-5.50465 19.69358,-9.55556 28.6647,-13.95747 36.79979,-17.8477 45.18469,-21.60751 5.85353,-2.62474 8.60422,-3.7581 11.69396,-4.81825 3.07861,-1.05633 4.79804,-1.43006 7.06411,-1.53546 l 1.57156,-0.0731 -1.147,-0.0158 c -4.02779,-0.0555 -8.8099,1.58187 -21.54237,7.37595 -6.70883,3.05294 -14.61844,6.833 -34.42694,16.45289 -23.09115,11.2141 -26.56669,12.89134 -26.65329,12.86248 -0.0483,-0.0161 0.0946,-0.11148 0.31741,-0.21197 0.22285,-0.10049 0.40518,-0.22281 0.40518,-0.27181 0,-0.049 0.0442,-0.0618 0.0982,-0.0284 0.054,0.0334 0.0982,0.007 0.0982,-0.0597 0,-0.0662 0.0248,-0.0956 0.0551,-0.0652 0.0664,0.0664 5.2838,-2.46917 5.33092,-2.59067 0.0181,-0.0467 0.0734,-0.06 0.12277,-0.0294 0.0494,0.0305 0.0898,0.001 0.0898,-0.0649 0,-0.0662 0.0271,-0.0933 0.0602,-0.0602 0.0705,0.0705 9.30428,-4.52579 9.35302,-4.65558 0.0181,-0.0482 0.0734,-0.0627 0.12278,-0.0322 0.0494,0.0305 0.0898,0.006 0.0898,-0.0543 0,-0.0604 0.0442,-0.0825 0.0982,-0.0491 0.054,0.0334 0.0982,0.0113 0.0982,-0.0491 0,-0.0604 0.0442,-0.0825 0.0982,-0.0491 0.054,0.0334 0.0982,0.0113 0.0982,-0.0491 0,-0.0604 0.0442,-0.0825 0.0982,-0.0491 0.054,0.0334 0.0982,0.0113 0.0982,-0.0491 0,-0.0604 0.0442,-0.0825 0.0982,-0.0491 0.054,0.0334 0.0982,0.0113 0.0982,-0.0491 0,-0.0604 0.0442,-0.0825 0.0982,-0.0491 0.054,0.0334 0.0982,0.0113 0.0982,-0.0491 0,-0.0604 0.0442,-0.0825 0.0982,-0.0491 0.054,0.0334 0.0982,0.0113 0.0982,-0.0491 0,-0.0604 0.0442,-0.0825 0.0982,-0.0491 0.054,0.0334 0.0982,0.0113 0.0982,-0.0491 0,-0.0604 0.0442,-0.0825 0.0982,-0.0491 0.054,0.0334 0.0982,0.0113 0.0982,-0.0491 0,-0.0604 0.0442,-0.0825 0.0982,-0.0491 0.054,0.0334 0.0982,0.007 0.0982,-0.0597 0,-0.0662 0.0293,-0.0911 0.0651,-0.0553 0.072,0.072 14.30484,-7.08301 14.35745,-7.21768 0.0181,-0.0464 0.0734,-0.0593 0.12278,-0.0288 0.0494,0.0305 0.0898,0.006 0.0898,-0.0543 0,-0.0604 0.0442,-0.0825 0.0982,-0.0491 0.054,0.0334 0.0982,0.0113 0.0982,-0.0491 0,-0.0604 0.0442,-0.0825 0.0982,-0.0491 0.054,0.0334 0.0982,0.007 0.0982,-0.0597 0,-0.0662 0.0271,-0.0933 0.0602,-0.0602 0.0705,0.0705 6.16108,-2.95447 6.20984,-3.08418 0.0181,-0.0482 0.0734,-0.0627 0.12278,-0.0321 0.0494,0.0305 0.0898,0.006 0.0898,-0.0543 0,-0.0604 0.0442,-0.0825 0.0982,-0.0491 0.054,0.0334 0.0982,0.0113 0.0982,-0.0491 0,-0.0604 0.0442,-0.0825 0.0982,-0.0491 0.054,0.0334 0.0982,0.0113 0.0982,-0.0491 0,-0.0604 0.0442,-0.0825 0.0982,-0.0491 0.054,0.0334 0.0982,0.0113 0.0982,-0.0491 0,-0.0604 0.0442,-0.0825 0.0982,-0.0491 0.054,0.0334 0.0982,0.0113 0.0982,-0.0491 0,-0.0604 0.0442,-0.0825 0.0982,-0.0491 0.054,0.0334 0.0982,0.0113 0.0982,-0.0491 0,-0.0604 0.0359,-0.0876 0.0798,-0.0605 0.0779,0.0481 8.94875,-4.30091 9.05195,-4.43779 0.0286,-0.038 0.11835,-0.0832 0.19938,-0.10059 0.081,-0.0174 2.42581,-1.13021 5.21061,-2.47302 2.7848,-1.3428 5.24895,-2.51576 5.47589,-2.60656 0.22695,-0.0908 0.41263,-0.19714 0.41263,-0.23629 0,-0.0391 0.0566,-0.0712 0.12589,-0.0712 0.17497,0 2.62433,-1.13049 2.62433,-1.21125 0,-0.0361 0.0687,-0.0656 0.15272,-0.0656 0.18845,0 1.53906,-0.63428 1.63834,-0.76941 0.0397,-0.054 0.0728,-0.0639 0.0737,-0.022 0.002,0.11463 0.59348,-0.21434 0.65003,-0.36169 0.027,-0.0703 -0.08,-0.49898 -0.23784,-0.95253 -0.5681,-1.63279 -3.09003,-8.38886 -3.14935,-8.43687 -0.0334,-0.027 -0.0668,-0.11541 -0.0743,-0.19645 -0.007,-0.081 -0.86206,-2.62253 -1.8991,-5.64778 -1.03703,-3.02525 -1.93135,-5.6662 -1.98736,-5.86879 -0.056,-0.20258 -0.14244,-0.36833 -0.19204,-0.36833 -0.1848,0 -0.86814,0.40103 -0.86814,0.50948 0,0.0619 -0.0255,0.0871 -0.0567,0.0559 -0.0501,-0.0501 -5.43499,2.54595 -5.69315,2.74472 -0.0561,0.0432 -0.16663,0.0932 -0.24555,0.11104 -0.0789,0.0179 -1.4474,0.6091 -3.04106,1.31388 -1.59366,0.70478 -3.73736,1.63442 -4.76378,2.06586 -1.02643,0.43144 -1.88833,0.81259 -1.91534,0.84701 -0.027,0.0344 -0.12318,0.0748 -0.21371,0.0898 -0.29029,0.048 -4.15593,1.70965 -4.19013,1.80118 -0.0181,0.0485 -0.0672,0.067 -0.10913,0.0411 -0.0961,-0.0594 -2.49831,0.92399 -2.54287,1.04101 -0.0181,0.0476 -0.0666,0.0657 -0.10771,0.0403 -0.0955,-0.059 -2.99139,1.12056 -3.03541,1.2364 -0.0181,0.0477 -0.0672,0.0655 -0.10913,0.0396 -0.0961,-0.0594 -2.49831,0.924 -2.54287,1.04102 -0.0181,0.0476 -0.0669,0.0656 -0.10832,0.0399 -0.078,-0.0482 -4.24073,1.58739 -4.32785,1.7005 -0.027,0.0351 -0.11542,0.07 -0.19645,0.0775 -0.19499,0.0182 -3.9624,1.50656 -4.02647,1.59068 -0.0274,0.0359 -0.11606,0.0713 -0.19709,0.0786 -0.24659,0.0221 -3.48456,1.33265 -3.51984,1.42459 -0.0181,0.0472 -0.066,0.0654 -0.10638,0.0405 -0.0789,-0.0488 -2.08459,0.70362 -2.16796,0.81325 -0.0275,0.0362 -0.11635,0.0706 -0.19739,0.0765 -0.17189,0.0125 -7.09731,2.69968 -7.17023,2.78217 -0.027,0.0306 -0.1229,0.0677 -0.21308,0.0826 -0.24064,0.0397 -4.05098,1.50398 -4.1087,1.57895 -0.027,0.0351 -0.11541,0.069 -0.19645,0.0754 -0.18299,0.0144 -3.37026,1.22414 -3.43778,1.30483 -0.027,0.0323 -0.11541,0.0705 -0.19644,0.0849 -0.21464,0.0381 -2.59403,0.93493 -2.65201,0.99954 -0.027,0.0301 -0.11541,0.0669 -0.19644,0.0817 -0.23493,0.043 -3.3835,1.22353 -3.43779,1.28895 -0.027,0.0326 -0.0933,0.0592 -0.14733,0.0592 -0.12641,0 -5.28797,1.93662 -5.35312,2.00849 -0.027,0.0298 -0.11541,0.0671 -0.19644,0.0829 -0.23595,0.046 -7.4107,2.70266 -7.4649,2.76407 -0.027,0.0306 -0.11541,0.0616 -0.19645,0.069 -0.1623,0.0147 -8.41265,3.04712 -8.58521,3.15553 -0.0591,0.0371 -0.20692,0.0812 -0.32847,0.0979 -0.18485,0.0254 -0.221,-0.0157 -0.221,-0.25115 0,-0.28132 0.004,-0.28289 4.19901,-1.83475 32.379,-11.97684 62.50021,-23.78587 76.29422,-29.91118 7.43778,-3.30279 8.46601,-3.95571 9.07461,-5.76232 0.10925,-0.32429 0.22121,-0.89523 0.24882,-1.26874 0.0572,-0.77422 0.0259,-0.69615 -0.14108,0.35221 -0.29657,1.86152 -1.12806,2.72537 -4.01372,4.16994 -9.56645,4.78901 -46.25051,19.326 -81.68385,32.36931 -1.29654,0.47727 -2.72199,1.00278 -3.16767,1.16781 l -0.81034,0.30005 0,-37.12569 0,-37.125697 43.04525,0.02467 43.04524,0.02467 0.41746,2.455559 c 1.05059,6.179696 2.11843,13.647734 2.61933,18.318472 0.58471,5.452308 0.75225,7.983355 0.76718,11.590243 0.0105,2.53689 0.0191,2.67502 0.0918,1.47333 0.30827,-5.094482 -1.1222,-18.524347 -3.30757,-31.053065 -0.24171,-1.385708 -0.43947,-2.59016 -0.43947,-2.67656 0,-0.108218 0.0895,-0.15709 0.2877,-0.15709 0.32544,0 0.30241,-0.07365 0.69119,2.210003 0.11036,0.648268 0.2234,1.278119 0.2512,1.399669 0.0353,0.154377 0.006,0.221 -0.0987,0.221 -0.0821,0 -0.14921,0.0442 -0.14921,0.09822 0,0.05402 0.0633,0.09822 0.14072,0.09822 0.14967,0 0.26034,0.254221 0.29415,0.675757 0.0364,0.453667 1.06143,7.323746 1.11555,7.476699 0.0287,0.08103 0.0451,0.194246 0.0366,0.251582 -0.009,0.05734 0.0714,0.720339 0.17772,1.473336 0.10629,0.752998 0.21722,1.612187 0.24652,1.90931 0.0293,0.297123 0.20591,1.844125 0.39247,3.437783 0.18656,1.593658 0.36569,3.337174 0.39807,3.874481 0.0324,0.537307 0.0778,1.007593 0.101,1.045079 0.0232,0.03749 0.0637,0.415573 0.0901,0.840192 0.0264,0.42462 0.0924,1.412936 0.14676,2.196259 0.0543,0.783324 0.0979,3.059627 0.0968,5.05845 -0.002,4.01293 -0.0623,4.63306 -0.56509,5.82976 l -0.29793,0.7091 0.43411,1.29791 c 0.23876,0.71385 0.46282,1.36421 0.4979,1.44525 0.0351,0.081 0.0751,0.20134 0.089,0.26735 0.0636,0.30332 2.04301,6.17752 2.11087,6.26443 0.0422,0.054 0.0804,0.13138 0.085,0.17189 0.005,0.0405 0.0117,0.0847 0.0159,0.0982 0.004,0.0135 0.0221,0.0909 0.0399,0.17189 0.0281,0.12778 0.33341,1.01024 1.56336,4.51823 0.14205,0.40517 0.30185,0.81342 0.35511,0.90723 0.0533,0.0938 0.0968,0.21247 0.0968,0.26371 0,0.0512 0.051,0.21759 0.11331,0.36967 0.0623,0.15208 0.12313,0.32071 0.13513,0.37473 0.0348,0.15662 1.03411,2.81336 1.20075,3.19223 0.0832,0.18907 0.16243,0.38797 0.17615,0.442 0.0137,0.054 0.0809,0.23082 0.14923,0.39289 0.0684,0.16206 0.12801,0.31866 0.13253,0.348 0.0344,0.2231 0.50163,1.17444 0.57677,1.17444 0.052,0 1.1167,-0.39356 2.36594,-0.87458 2.44518,-0.94153 4.75627,-1.71257 6.24932,-2.08493 0.51321,-0.12799 0.94793,-0.26614 0.96605,-0.30699 0.0181,-0.0409 0.0701,-0.0513 0.11544,-0.0233 0.0454,0.028 0.49464,-0.026 0.99839,-0.12019 0.7645,-0.14288 1.51664,-0.1715 4.55012,-0.17315 3.34983,-0.002 3.72728,0.0152 4.82316,0.21807 4.83598,0.89502 8.03134,2.85354 9.54272,5.84898 0.19656,0.38958 0.39309,0.72314 0.43672,0.74126 0.0436,0.0181 0.0602,0.0638 0.0369,0.10158 -0.0233,0.0377 0.0427,0.37556 0.14672,0.7507 0.10403,0.37515 0.18914,0.80198 0.18914,0.94853 0,0.14654 0.0331,0.28684 0.0737,0.31178 0.0405,0.0249 0.045,1.0773 0.01,2.33858 -0.0558,2.00952 -0.0951,2.41771 -0.31757,3.29942 -0.27056,1.07218 -0.75881,2.41491 -1.18129,3.24863 -0.14185,0.27993 -0.22401,0.50964 -0.18258,0.51047 0.0414,7.9e-4 0.0268,0.034 -0.0326,0.0737 -0.0593,0.0397 -0.29998,0.38156 -0.53475,0.75972 -0.85257,1.37327 -1.94082,2.68681 -3.62753,4.37848 -2.38043,2.38743 -4.67409,4.26176 -8.15498,6.66402 -0.7293,0.50332 -1.37722,0.97905 -1.43983,1.05719 -0.0626,0.0781 -0.151,0.1393 -0.19644,0.1359 -0.0454,-0.003 -0.90032,0.51781 -1.89973,1.15823 -2.3312,1.49381 -6.10056,3.75362 -9.03646,5.41752 -1.26952,0.7195 -2.36347,1.37549 -2.431,1.45776 -0.0675,0.0823 -0.12278,0.11482 -0.12278,0.0723 0,-0.0425 -0.24243,0.0596 -0.53874,0.22679 -0.46628,0.26315 -0.6347,0.30386 -1.25233,0.30274 l -0.7136,-0.001 0.73667,-0.40468 c 10.1687,-5.58609 16.87915,-9.80982 21.01958,-13.23026 1.39164,-1.14964 3.91861,-3.67971 4.92274,-4.92878 4.06905,-5.06164 5.4578,-9.81282 4.01988,-13.75281 -0.70831,-1.94081 -1.80182,-3.33945 -3.48374,-4.45585 -0.84775,-0.5627 -2.5345,-1.37422 -3.69087,-1.77573 -1.09901,-0.3816 -3.25221,-0.93922 -3.58265,-0.92782 -0.1094,0.004 0.24309,0.10939 0.78331,0.2347 4.06109,0.94203 7.23081,2.63551 8.64665,4.61965 1.03277,1.44729 1.56179,2.91486 1.71366,4.754 0.4694,5.68413 -4.13364,12.49264 -12.57031,18.59318 -3.24564,2.34691 -9.53257,6.17143 -16.14381,9.82073 l -2.63823,1.45627 -36.10231,0 c -19.85627,0 -36.08389,-0.015 -36.06138,-0.0333 l 0,0 z m 92.05259,-39.51655 c -0.0665,-0.0269 -0.19909,-0.0285 -0.29466,-0.004 -0.0956,0.0249 -0.0412,0.0469 0.12091,0.0489 0.16206,0.002 0.24026,-0.0184 0.17375,-0.0453 l 0,0 z m -0.86131,-0.13765 c -0.21609,-0.0447 -0.61389,-0.0764 -0.884,-0.0704 l -0.49111,0.0109 0.58933,0.0652 c 0.32414,0.0359 0.72194,0.0675 0.884,0.0704 0.23933,0.004 0.22088,-0.0101 -0.0982,-0.0761 z"
     id="path3080"
     inkscape:connector-curvature="0" />
  <path
     style="fill:#333333;fill-opacity:1"
     d=""
     id="path3082"
     inkscape:connector-curvature="0" />
  <path
     style="fill:#333333;fill-opacity:1"
     d="m 228.51077,166.00995 c 0.74535,-0.36599 2.61236,-1.28279 4.14892,-2.03734 6.52357,-3.2035 33.64955,-16.78067 33.6797,-16.85746 0.0181,-0.0462 0.0734,-0.0589 0.12278,-0.0284 0.0494,0.0305 0.0898,0.001 0.0898,-0.0649 0,-0.0662 0.0274,-0.093 0.0608,-0.0596 0.0335,0.0334 0.12494,-0.003 0.20332,-0.0817 0.0784,-0.0784 0.26097,-0.17122 0.40575,-0.20632 0.33993,-0.0824 4.98068,-2.39808 5.46619,-2.72755 0.20345,-0.13806 0.40886,-0.22695 0.45648,-0.19752 0.0476,0.0294 0.0866,0.004 0.0866,-0.0563 0,-0.0604 0.0442,-0.0825 0.0982,-0.0491 0.054,0.0334 0.0982,0.0113 0.0982,-0.0491 0,-0.0604 0.0442,-0.0825 0.0982,-0.0491 0.054,0.0334 0.0982,0.0113 0.0982,-0.0491 0,-0.0604 0.0406,-0.0847 0.0903,-0.054 0.0497,0.0307 0.15859,-0.0125 0.24205,-0.0959 0.0835,-0.0835 0.17486,-0.15149 0.2031,-0.15118 0.21473,0.002 9.10771,-4.38202 9.20783,-4.53958 0.0418,-0.0657 0.0766,-0.0897 0.0774,-0.0531 0.002,0.0681 3.25259,-1.46596 3.34107,-1.57656 0.027,-0.0338 0.10923,-0.0741 0.18272,-0.0896 0.21969,-0.0463 6.14756,-2.90737 6.21271,-2.99853 0.0331,-0.0463 0.0994,-0.0803 0.14734,-0.0757 0.14679,0.0142 1.31502,-0.52138 1.31502,-0.60283 0,-0.042 0.0598,-0.0764 0.13298,-0.0764 0.14547,0 2.53771,-1.06565 2.61724,-1.16588 0.027,-0.034 0.11541,-0.0756 0.19645,-0.0923 0.27235,-0.0562 2.35733,-1.0949 2.35733,-1.17445 -4.28809,-11.72468 -4.37705,-12.14134 -7.38728,-21.04254 -0.054,-0.18908 -0.11277,-0.35935 -0.13066,-0.37838 -0.0543,-0.0578 -0.92916,0.40732 -0.92916,0.49401 0,0.0444 -0.0483,0.0808 -0.10736,0.0808 -0.0591,0 -1.39611,0.63221 -2.97123,1.40492 -1.57512,0.7727 -3.85836,1.83928 -5.07387,2.37017 -1.2155,0.53089 -2.2321,0.99263 -2.25911,1.02609 -0.027,0.0335 -0.11541,0.0746 -0.19645,0.0914 -0.16101,0.0334 -4.64185,1.9428 -4.96022,2.11366 -0.10805,0.058 -0.24065,0.11339 -0.29467,0.12314 -0.15192,0.0274 -3.69488,1.51518 -4.02712,1.69107 -0.16207,0.0858 -0.36285,0.16782 -0.44618,0.18227 -0.17272,0.0299 -2.00631,0.78402 -2.30404,0.94755 -0.10805,0.0593 -0.26398,0.11933 -0.34651,0.13331 -0.16663,0.0282 -2.68492,1.06305 -2.87364,1.18086 -0.0657,0.041 -0.1876,0.0852 -0.27093,0.0982 -0.16886,0.0264 -1.99665,0.77608 -2.30404,0.94504 -0.10805,0.0594 -0.2468,0.11652 -0.30834,0.12696 -0.18143,0.0308 -4.20528,1.63766 -4.259,1.70077 -0.027,0.0317 -0.12284,0.0699 -0.21295,0.0847 -0.0901,0.0148 -1.6053,0.6005 -3.36709,1.30144 -1.76179,0.70094 -3.22276,1.27444 -3.24659,1.27444 -0.0238,0 -0.29875,0.11706 -0.61092,0.26015 -0.31217,0.14308 -0.62858,0.27261 -0.70314,0.28785 -0.2051,0.0419 -3.29496,1.25386 -3.35133,1.3145 -0.027,0.0291 -0.11541,0.0659 -0.19645,0.0817 -0.23058,0.0453 -2.79349,1.0281 -2.84844,1.09234 -0.027,0.0316 -0.11542,0.0709 -0.19645,0.0874 -0.18115,0.0369 -2.66043,0.99462 -2.79822,1.08091 -0.0546,0.0342 -0.14354,0.0697 -0.19756,0.0789 -0.054,0.009 -0.73912,0.26 -1.52245,0.55745 -4.26771,1.62052 -5.63375,2.14545 -5.96663,2.29282 -0.20279,0.0898 -0.41291,0.17424 -0.46693,0.1877 -0.24615,0.0613 -6.15078,2.29957 -6.28041,2.38071 -0.0572,0.0358 -0.15461,0.0728 -0.2164,0.0822 -0.14724,0.0224 -5.15718,1.90097 -5.28775,1.98274 -0.0552,0.0346 -0.14455,0.0702 -0.19857,0.0793 -0.10987,0.0184 -2.58575,0.93241 -3.04489,1.12403 -0.16207,0.0676 -0.33887,0.13349 -0.39289,0.14633 -0.12351,0.0294 -12.27177,4.50643 -12.67133,4.66983 -0.16172,0.0661 -0.39348,0.13694 -0.51503,0.15736 -0.18743,0.0315 -0.221,-0.007 -0.221,-0.25131 0,-0.22597 0.0585,-0.30912 0.27011,-0.38405 2.88472,-1.0213 23.48181,-8.75407 32.2415,-12.10443 13.99508,-5.35278 32.69465,-12.71555 32.58153,-12.82867 -0.0183,-0.0182 -1.8647,0.70035 -4.10323,1.59688 -16.75781,6.71149 -36.81835,14.39953 -57.50301,22.03754 -1.72872,0.63834 -3.22047,1.19151 -3.31501,1.22926 -0.16352,0.0653 -0.17189,-1.73921 -0.17189,-37.07004 l 0,-37.138677 43.04595,0.02467 43.04596,0.02467 0.19332,1.129558 c 0.10634,0.621256 0.20652,1.063257 0.22264,0.982223 0.0161,-0.08103 -0.052,-0.600384 -0.1513,-1.154113 l -0.1806,-1.006779 0.3185,0 c 0.37084,0 0.31195,-0.176555 0.7215,2.163311 0.19526,1.115563 0.2503,1.63747 0.17746,1.682491 -0.0699,0.04318 -0.0503,0.120521 0.0577,0.228528 0.0898,0.08979 0.16334,0.215357 0.16343,0.279026 9e-5,0.06367 0.21876,1.555574 0.48593,3.315344 0.87996,5.796082 1.85317,13.756028 2.1187,17.328892 0.19584,2.635248 0.24604,4.097121 0.2468,7.187536 10e-4,4.23531 -0.0971,5.07511 -0.73772,6.31398 3.2026,9.82296 3.28255,10.23094 7.27056,21.31832 0.27245,0.67569 0.35225,0.73559 0.74587,0.55986 0.18171,-0.0811 0.94918,-0.38019 1.70549,-0.6646 0.75631,-0.28441 1.39721,-0.54295 1.42422,-0.57452 0.027,-0.0316 0.11541,-0.0655 0.19645,-0.0754 0.081,-0.01 0.69983,-0.21299 1.37511,-0.45133 0.67528,-0.23833 1.91288,-0.62205 2.75023,-0.8527 0.83734,-0.23066 1.58874,-0.4421 1.66978,-0.46986 0.081,-0.0278 0.23573,-0.0598 0.34377,-0.0712 0.10805,-0.0114 0.57215,-0.0831 1.03134,-0.15926 0.6129,-0.10168 1.80121,-0.13849 4.46912,-0.13841 3.08082,9e-5 3.77631,0.0269 4.56734,0.17614 1.16928,0.22058 2.984,0.69702 3.64045,0.95577 0.27454,0.10821 0.53638,0.17375 0.58186,0.14565 0.0455,-0.0281 0.0975,-0.0129 0.11564,0.0339 0.0181,0.0467 0.44528,0.29097 0.94926,0.5427 1.46306,0.7308 2.78368,1.79354 3.62493,2.91708 0.36784,0.49125 1.33584,2.15333 1.25412,2.15333 -0.0196,0 0.008,0.14365 0.0607,0.31923 0.29652,0.98233 0.3834,1.7804 0.38227,3.51144 -9.8e-4,0.99942 -0.0264,2.03812 -0.0573,2.30823 -0.15066,1.31901 -0.60778,2.89631 -1.23513,4.26185 -0.20823,0.45324 -0.3786,0.85433 -0.3786,0.89131 0,0.0872 -1.12875,1.81307 -1.48689,2.27344 -0.15172,0.19503 -0.24757,0.38288 -0.213,0.41745 0.0346,0.0346 0.0161,0.0628 -0.0412,0.0628 -0.0572,0 -0.41276,0.36465 -0.79012,0.81034 -0.9233,1.09045 -2.96211,3.08722 -4.34438,4.25478 -4.30714,3.6381 -9.47178,7.03045 -19.05514,12.51622 -0.78333,0.44839 -1.4567,0.86398 -1.49639,0.92353 -0.0397,0.0596 -0.0728,0.0719 -0.0737,0.0274 -9.8e-4,-0.0445 -0.24239,0.057 -0.53682,0.22541 -0.48163,0.27556 -0.60457,0.30337 -1.22586,0.27732 l -0.69055,-0.029 1.7776,-0.98223 c 0.97769,-0.54022 1.84977,-1.04075 1.93798,-1.11228 0.23372,-0.18954 0.15502,-0.14863 -2.02058,1.05054 l -1.98451,1.09385 -36.40049,-0.001 -36.4005,-0.001 1.35517,-0.66543 0,0 z m 3.10196,-1.23785 c 4.7145,-2.26905 11.47078,-5.54621 21.48281,-10.42031 4.29477,-2.0908 9.67694,-4.71003 11.96039,-5.8205 2.28344,-1.11048 4.13646,-2.0343 4.11783,-2.05293 -0.0186,-0.0186 -2.68251,1.25267 -5.91972,2.82512 -3.23721,1.57246 -12.44954,6.04085 -20.47185,9.92975 -15.01258,7.27752 -15.12985,7.33492 -15.00013,7.34154 0.0423,0.002 1.76615,-0.80904 3.83067,-1.80267 z m 73.14777,-0.70311 c 0,-0.027 -0.1326,0.0195 -0.29467,0.10327 -0.16206,0.0838 -0.29466,0.17448 -0.29466,0.20149 0,0.027 0.1326,-0.0195 0.29466,-0.10327 0.16207,-0.0838 0.29467,-0.17448 0.29467,-0.20149 z m 0.884,-0.49111 c 0,-0.027 -0.1326,0.0195 -0.29467,0.10327 -0.16206,0.0838 -0.29466,0.17448 -0.29466,0.20149 0,0.027 0.1326,-0.0195 0.29466,-0.10327 0.16207,-0.0838 0.29467,-0.17448 0.29467,-0.20149 z m 1.96445,-1.09796 c 2.83647,-1.62095 7.44558,-4.43467 7.97911,-4.871 0.31065,-0.25407 0.0634,-0.11497 -0.9071,0.51027 -1.41228,0.90987 -4.16292,2.56849 -6.53179,3.93861 -1.24251,0.71865 -2.30331,1.35124 -2.35734,1.40574 -0.12929,0.13044 -0.18768,0.16205 1.81712,-0.98362 z m 9.99798,-6.19796 c 0.65868,-0.45006 1.22313,-0.85959 1.25433,-0.91007 0.0586,-0.0949 -1.94926,1.25819 -2.465,1.66108 -0.49106,0.38361 -0.0442,0.10643 1.21067,-0.75101 z m 3.54371,-2.6258 c 2.13244,-1.69892 4.31094,-3.83597 5.80098,-5.69059 0.34722,-0.43218 0.6763,-0.85208 0.73129,-0.93311 0.21842,-0.32188 -0.2075,0.1553 -0.83095,0.93097 -1.49455,1.85942 -4.20677,4.43988 -6.6655,6.34168 -1.19011,0.92054 -1.57428,1.27037 -0.73016,0.66491 0.24946,-0.17893 1.01191,-0.77017 1.69434,-1.31386 z m 7.32927,-7.72871 c 0.28818,-0.48732 0.0874,-0.28273 -0.33732,0.34378 -0.2841,0.41905 -0.32196,0.50478 -0.1193,0.27011 0.16329,-0.18907 0.36877,-0.46532 0.45662,-0.61389 z m -57.40968,-0.31922 c 0.78332,-0.3995 1.38002,-0.72636 1.326,-0.72636 -0.054,0 -0.73912,0.32686 -1.52245,0.72636 -0.78332,0.3995 -1.38002,0.72636 -1.326,0.72636 0.054,0 0.73913,-0.32686 1.52245,-0.72636 z m 58.19985,-0.98222 c 0.15114,-0.27011 0.22919,-0.44691 0.17345,-0.39289 -0.0557,0.054 -0.22497,0.31922 -0.3761,0.58933 -0.15113,0.27011 -0.22918,0.44692 -0.17345,0.39289 0.0557,-0.054 0.22498,-0.31922 0.3761,-0.58933 z m -55.3514,-0.39289 c 0.67528,-0.34553 1.18358,-0.62824 1.12955,-0.62824 -0.054,0 -0.65072,0.28271 -1.326,0.62824 -0.67528,0.34553 -1.18358,0.62824 -1.12955,0.62824 0.054,0 0.65072,-0.28271 1.326,-0.62824 z m 55.98675,-0.77181 c 0,-0.1248 -0.0454,-0.0691 -0.18856,0.23159 -0.11028,0.23153 -0.10822,0.23467 0.0358,0.0549 0.084,-0.10486 0.15276,-0.23378 0.15276,-0.28648 z m -51.06947,-1.59624 c 3.14465,-1.51972 12.24187,-5.82132 14.36071,-6.79043 0.41969,-0.19196 0.74732,-0.36477 0.72807,-0.38402 -0.0805,-0.0805 -16.86508,7.85186 -18.48362,8.73534 -0.87396,0.47706 0.19207,-0.0131 3.39484,-1.56089 z m 51.55235,0.50182 c 0,-0.054 -0.0847,0.0565 -0.18822,0.24556 -0.10351,0.18908 -0.18821,0.38798 -0.18821,0.442 0,0.054 0.0847,-0.0565 0.18821,-0.24556 0.10352,-0.18907 0.18822,-0.38797 0.18822,-0.442 z m 0.33885,-0.93311 c 0.0484,-0.19721 0.0338,-0.18755 -0.0739,0.0491 -0.0738,0.16207 -0.16128,0.40517 -0.19442,0.54023 -0.0484,0.19721 -0.0338,0.18754 0.0739,-0.0491 0.0738,-0.16206 0.16128,-0.40516 0.19442,-0.54022 z m 0.22758,-0.80419 c -0.0314,-0.0784 -0.0546,-0.0551 -0.0593,0.0593 -0.004,0.10354 0.019,0.16155 0.0516,0.12892 0.0326,-0.0326 0.0361,-0.11736 0.008,-0.18826 l -10e-6,0 z m 0.21088,-0.76737 -0.003,-0.24555 -0.0786,0.24555 c -0.0433,0.13506 -0.0799,0.33396 -0.0815,0.442 -0.003,0.19645 -0.003,0.19645 0.0815,0 0.0464,-0.10804 0.0831,-0.30694 0.0815,-0.442 z m 0.20152,-1.2687 c 0.0175,-0.65243 -0.0525,-0.44509 -0.11325,0.33559 -0.0325,0.41703 -0.023,0.57162 0.0241,0.39289 0.0427,-0.16207 0.0828,-0.48988 0.0892,-0.72848 z m 0.0682,-1.40786 c -0.0781,-0.94533 -0.25613,-2.06778 -0.31806,-2.00585 -0.0236,0.0236 0.002,0.3244 0.056,0.66836 0.0544,0.34396 0.12671,0.96793 0.16059,1.38661 0.0339,0.41867 0.0856,0.76122 0.11502,0.76122 0.0294,0 0.0233,-0.36465 -0.0136,-0.81034 l 0,0 z m -0.4495,-2.57833 c -0.15358,-0.46536 -0.22393,-0.39501 -0.0786,0.0786 0.0613,0.19979 0.13059,0.34415 0.15394,0.3208 0.0233,-0.0233 -0.0106,-0.20307 -0.0754,-0.39938 z m -33.50738,-1.46308 c 1.06295,-0.47719 2.00575,-0.90847 2.5931,-1.18449 0.4031,-0.18945 0.63877,-0.30576 0.63093,-0.3136 -1.85289,0.75923 -3.79383,1.60162 -5.76426,2.55485 -1.57925,0.76883 -0.85756,0.4686 2.54023,-1.05676 z m 33.22471,0.75833 c -0.1158,-0.19912 -0.14375,-0.13538 -0.049,0.11162 0.0337,0.0878 0.0819,0.13891 0.10723,0.11362 0.0253,-0.0253 -9.8e-4,-0.12665 -0.0583,-0.22524 z m -0.11022,-0.30781 c 0,-0.0437 -0.067,-0.16525 -0.14893,-0.27012 -0.1381,-0.1768 -0.14052,-0.17102 -0.0333,0.0795 0.11565,0.27026 0.18227,0.33995 0.18227,0.19067 z m -0.40248,-0.73089 c -0.50549,-0.97366 -1.70526,-2.24198 -2.78975,-2.94914 -0.64382,-0.41981 -2.79906,-1.4896 -3.19222,-1.58451 l -0.24556,-0.0593 0.24556,0.11269 c 3.35235,1.53843 4.65106,2.48423 5.66346,4.12444 0.35355,0.5728 0.53831,0.77919 0.31851,0.3558 z m -28.00724,-1.79552 c 0.60836,-0.25827 1.08985,-0.48584 1.06997,-0.50571 -0.0407,-0.0407 -2.33904,0.92944 -2.41917,1.02117 -0.0708,0.0811 0.0779,0.0243 1.3492,-0.51546 z m 3.16657,-1.29746 c 0.94539,-0.37611 2.06251,-0.80724 2.48248,-0.95806 0.41997,-0.15082 0.74641,-0.29139 0.72542,-0.31237 -0.0726,-0.0726 -4.70386,1.70622 -5.07412,1.9489 -0.13096,0.0858 -0.13096,0.0915 0,0.051 0.081,-0.0251 0.92083,-0.35333 1.86622,-0.72944 l 0,0 z m 4.66557,-1.70305 c 0.4862,-0.15383 1.2818,-0.3886 1.768,-0.5217 0.4862,-0.1331 0.80867,-0.24523 0.71661,-0.24919 -0.21425,-0.009 -3.12872,0.8332 -3.54493,1.02465 -0.40919,0.18821 -0.11108,0.11687 1.06032,-0.25376 z m 13.65291,0.0533 c -0.16207,-0.0742 -0.36097,-0.13355 -0.44201,-0.13188 -0.081,0.002 0.007,0.0626 0.19645,0.13543 0.44845,0.1727 0.6249,0.17015 0.24556,-0.004 l 0,-1e-5 z m -1.25438,-0.39957 c -0.0326,-0.0326 -0.11736,-0.0361 -0.18827,-0.008 -0.0784,0.0314 -0.0551,0.0546 0.0593,0.0593 0.10354,0.004 0.16156,-0.019 0.12892,-0.0516 l 0,0 z m -0.78578,-0.19644 c -0.0326,-0.0326 -0.11736,-0.0361 -0.18826,-0.008 -0.0784,0.0313 -0.0551,0.0546 0.0593,0.0593 0.10354,0.004 0.16156,-0.0189 0.12892,-0.0516 l 0,0 z m -0.39289,-0.0982 c -0.0326,-0.0326 -0.11736,-0.0361 -0.18826,-0.008 -0.0784,0.0314 -0.0551,0.0546 0.0593,0.0593 0.10354,0.004 0.16156,-0.019 0.12892,-0.0516 l 0,-1e-5 z m -0.39289,-0.0982 c -0.0326,-0.0326 -0.11736,-0.0361 -0.18826,-0.008 -0.0784,0.0314 -0.0551,0.0546 0.0593,0.0593 0.10354,0.004 0.16156,-0.019 0.12892,-0.0516 l 0,0 z m -7.24186,-0.18265 c 0.35115,-0.0724 0.50585,-0.13174 0.34378,-0.13184 -0.30466,-2e-4 -1.39141,0.24791 -1.12956,0.25789 0.081,0.003 0.43464,-0.0536 0.78578,-0.12605 z m 5.47386,-0.11202 c -0.0326,-0.0326 -0.11736,-0.0361 -0.18827,-0.008 -0.0784,0.0314 -0.0551,0.0546 0.0593,0.0594 0.10354,0.004 0.16156,-0.019 0.12892,-0.0516 l 0,-10e-6 z m -4.22152,-0.10658 c -0.0945,-0.0247 -0.24924,-0.0247 -0.34378,0 -0.0945,0.0247 -0.0172,0.0449 0.17189,0.0449 0.18908,0 0.26643,-0.0202 0.17189,-0.0449 z m 3.48689,0.003 c -0.0675,-0.0272 -0.17803,-0.0272 -0.24555,0 -0.0675,0.0273 -0.0123,0.0495 0.12277,0.0495 0.13506,0 0.19031,-0.0223 0.12278,-0.0495 z m -1.61738,-0.10524 c -0.25479,-0.0202 -0.69679,-0.0204 -0.98222,-4.9e-4 -0.28542,0.0199 -0.077,0.0364 0.46327,0.0367 0.54022,2.9e-4 0.77375,-0.016 0.51895,-0.0362 l 0,2e-5 z m -47.22369,-7.88395 c 0.081,-0.0524 0.10313,-0.0952 0.0491,-0.0952 -0.054,0 -0.16452,0.0428 -0.24555,0.0952 -0.081,0.0524 -0.10314,0.0952 -0.0491,0.0952 0.054,0 0.16453,-0.0428 0.24556,-0.0952 z m 3.11089,-1.26558 c 4.58099,-1.88858 4.85075,-2.00287 4.81401,-2.03961 -0.0325,-0.0325 -6.8243,2.73917 -7.4829,3.05368 -0.83983,0.40107 0.13175,0.0319 2.66889,-1.01407 z m 5.33623,-2.22131 c 0.13506,-0.0772 0.20136,-0.14038 0.14734,-0.14038 -0.054,0 -0.20872,0.0632 -0.34378,0.14038 -0.13506,0.0772 -0.20136,0.14037 -0.14733,0.14037 0.054,0 0.20872,-0.0632 0.34377,-0.14037 z m 0.58934,-0.24556 c 0.081,-0.0524 0.10313,-0.0952 0.0491,-0.0952 -0.054,0 -0.16452,0.0428 -0.24556,0.0952 -0.081,0.0524 -0.10313,0.0952 -0.0491,0.0952 0.054,0 0.16452,-0.0428 0.24556,-0.0952 z m 2.43458,-1.0342 c 1.09592,-0.47168 1.97665,-0.87354 1.95716,-0.89303 -0.0421,-0.0421 -4.0985,1.69611 -4.18485,1.79329 -0.082,0.0923 -0.0237,0.0687 2.22769,-0.90026 z m 2.47654,-1.07758 c 0.13505,-0.0772 0.20135,-0.14037 0.14733,-0.14037 -0.054,0 -0.20872,0.0632 -0.34378,0.14037 -0.13505,0.0772 -0.20135,0.14037 -0.14733,0.14037 0.054,0 0.20872,-0.0632 0.34378,-0.14037 z m 0.78578,-0.34378 c 0.081,-0.0524 0.10313,-0.0952 0.0491,-0.0952 -0.054,0 -0.16453,0.0428 -0.24556,0.0952 -0.081,0.0524 -0.10313,0.0952 -0.0491,0.0952 0.054,0 0.16452,-0.0428 0.24556,-0.0952 z m 0.884,-0.39289 c 0.18907,-0.10351 0.29957,-0.18821 0.24555,-0.18821 -0.054,0 -0.25292,0.0847 -0.442,0.18821 -0.18908,0.10352 -0.29958,0.18821 -0.24555,0.18821 0.054,0 0.25292,-0.0847 0.442,-0.18821 z m 1.92311,-0.86956 c 3.24493,-1.49037 4.67678,-2.28011 5.43122,-2.99562 0.43446,-0.41204 0.99556,-1.194 0.99338,-1.38439 -6.8e-4,-0.057 -0.11403,0.0954 -0.25195,0.33845 -0.61792,1.08912 -1.46403,1.67846 -4.51262,3.14312 -3.14789,1.51238 -3.24336,1.55935 -3.18248,1.56566 0.0313,0.003 0.71639,-0.29701 1.52245,-0.66722 z m 6.59111,-5.0422 c -0.0314,-0.0784 -0.0546,-0.0551 -0.0593,0.0593 -0.004,0.10354 0.019,0.16155 0.0516,0.12891 0.0326,-0.0326 0.0361,-0.11735 0.008,-0.18826 l 1e-5,0 z m 0.0962,-0.49725 c -0.0272,-0.0675 -0.0495,-0.0123 -0.0495,0.12278 0,0.13506 0.0223,0.19031 0.0495,0.12278 0.0272,-0.0675 0.0272,-0.17803 0,-0.24556 z m 0.0982,-0.58933 c -0.0273,-0.0675 -0.0496,-0.0123 -0.0496,0.12278 0,0.13505 0.0223,0.1903 0.0496,0.12277 0.0272,-0.0675 0.0272,-0.17802 0,-0.24555 z m 0.10521,-2.25652 c -0.0208,-0.23102 -0.038,-0.0664 -0.0384,0.36574 -3.9e-4,0.43218 0.0166,0.62119 0.0377,0.42004 0.0211,-0.20116 0.0214,-0.55476 6.9e-4,-0.78578 l -4e-5,0 z m 9.9e-4,-3.632527 c -0.0187,-0.394024 -0.0341,-0.09761 -0.0343,0.658707 -1.9e-4,0.75631 0.0151,1.07869 0.034,0.71641 0.0188,-0.36229 0.019,-0.981092 2.9e-4,-1.375117 l -1e-5,0 z m -0.0997,-2.017855 c -0.0212,-0.202584 -0.0385,-0.03683 -0.0385,0.368334 0,0.405167 0.0173,0.570917 0.0385,0.368333 0.0212,-0.202583 0.0212,-0.534084 0,-0.736667 z m -0.0987,-1.424225 c -0.0218,-0.175572 -0.0396,-0.03192 -0.0396,0.319223 0,0.351145 0.0178,0.494795 0.0396,0.319223 0.0218,-0.175573 0.0218,-0.462873 0,-0.638446 z m -0.0989,-1.227779 c -0.0225,-0.148561 -0.0409,-0.02701 -0.0409,0.270111 0,0.297123 0.0184,0.418673 0.0409,0.270112 0.0225,-0.148561 0.0225,-0.391662 0,-0.540223 z m -0.0982,-1.080446 c -0.0225,-0.148561 -0.0409,-0.02701 -0.0409,0.270111 0,0.297123 0.0184,0.418673 0.0409,0.270112 0.0225,-0.148561 0.0225,-0.391662 0,-0.540223 z m -0.0981,-0.980873 c -0.0226,-0.149304 -0.0417,-0.05046 -0.0424,0.21965 -7.9e-4,0.270111 0.0177,0.392269 0.0411,0.271462 0.0233,-0.120808 0.0239,-0.341808 10e-4,-0.491112 l 1e-5,0 z m -0.0994,-1.032686 c -0.0234,-0.12155 -0.0426,-0.0221 -0.0426,0.221001 0,0.2431 0.0192,0.34255 0.0426,0.221 0.0234,-0.12155 0.0234,-0.32045 0,-0.442001 z m -0.16754,-1.596113 c -0.0691,-0.678164 -0.14606,-1.212678 -0.17093,-1.187809 -0.0249,0.02487 0.011,0.600425 0.0797,1.279015 0.0687,0.678591 0.14564,1.213104 0.17094,1.187809 0.0253,-0.02529 -0.0106,-0.600852 -0.0797,-1.279015 z m -0.29054,-2.4887 c -0.42686,-3.486985 -1.37552,-10.045365 -1.92034,-13.27599 -0.0865,-0.513212 -0.20628,-1.242513 -0.26606,-1.620669 -0.0598,-0.378156 -0.12676,-0.633941 -0.14885,-0.568411 -0.0221,0.06553 0.18329,1.479932 0.45641,3.143115 0.54644,3.327703 1.46024,9.636389 1.73804,11.999086 0.0977,0.830619 0.19544,1.456606 0.21728,1.391083 0.0218,-0.06552 -0.0126,-0.54622 -0.0765,-1.068214 l 0,0 z"
     id="path3084"
     inkscape:connector-curvature="0"
     inkscape:export-xdpi="1000"
     inkscape:export-ydpi="1000"
     inkscape:export-filename="/home/zacharilius/Documents/GitHub/odd-job/odd-job/Odd-Job/src/main/webapp/img/favicon.png"
     sodipodi:nodetypes="csccscccscssssssccccccccsscccccssssccccscccccccccssccccccccscccsccccccscscsscscccccccssccsssscccscccccscsccccccscccssssscsscccccscscccccccssssscccscsccscsccccsscccccscccscscsccscccscssscssscssssssscsssssssscscscccccccccccccccccccccccccsccccccccscccccccccccccccccccsccsscccccccscccccccsccccccccccccccccccccccccccccccccccccccccccccccccccscccccccsscsccsscscscsccsccccscscscsscscsscscscssccscsccccsccscccsccccscccccccscssssssssssssssssccccscssscccscccccc" />
</svg>
